<?xml version="1.0" standalone="no"?>
<!DOCTYPE svg PUBLIC "-//W3C//DTD SVG 1.1//EN" "http://www.w3.org/Graphics/SVG/1.1/DTD/svg11.dtd" >
<svg xmlns="http://www.w3.org/2000/svg">
<metadata>
This is a custom SVG webfont generated by Font Squirrel.
</metadata>
<defs>
<font id="webfontKQ6M5WNr" horiz-adv-x="550" >
<font-face units-per-em="1000" ascent="806" descent="-194" />
<missing-glyph horiz-adv-x="367" />
<glyph unicode=" "  horiz-adv-x="367" />
<glyph unicode="&#x09;" horiz-adv-x="367" />
<glyph unicode="&#xa0;" horiz-adv-x="367" />
<glyph unicode="!" horiz-adv-x="367" d="M392 673q-9 -41 -28 -118l-26 -107l-54 -224q-5 -20 -10 -24t-24 -4h-49q-11 0 -15 0.5t-7 2.5t-3 7q-1 3 15 88l21 110q6 31 22 124.5t27 144.5q4 15 9 18t23 3h77q18 0 22 -3t0 -18zM259 48q-5 -27 -17.5 -37.5t-40.5 -10.5h-35q-27 0 -35 10.5t-3 37.5l8 35 q5 27 17.5 37.5t40.5 10.5h35q29 0 36 -11t2 -37z" />
<glyph unicode="&#x22;" horiz-adv-x="578" d="M594 475q-4 -19 -20.5 -32t-35.5 -13h-45q-19 0 -29 13t-6 32l42 196q4 19 19.5 32t34.5 13h45q19 0 30 -13t7 -32zM322 475q-4 -19 -20.5 -32t-35.5 -13h-45q-19 0 -29 13t-6 32l42 196q4 19 19.5 32t34.5 13h45q19 0 30 -13t7 -32z" />
<glyph unicode="#" horiz-adv-x="917" d="M884 135q-9 -42 -62 -42h-229l-126 -250q-20 -37 -50 -37q-18 0 -27.5 12.5t-5.5 29.5q2 15 121 245h-145l-126 -250q-20 -37 -50 -37q-18 0 -27.5 12.5t-5.5 29.5q2 15 121 245h-138q-10 0 -18.5 1t-19 11.5t-6.5 29.5q9 42 63 42h162l72 146h-203q-11 0 -19.5 1 t-19 11.5t-6.5 29.5q9 42 62 42h229l126 250q17 37 50 37q18 0 27 -12.5t6 -29.5q-1 -6 -27 -59l-58 -115q-32 -62 -36 -71h145l126 250q17 37 50 37q18 0 27 -12.5t6 -29.5q-1 -6 -28 -59l-58 -115q-31 -62 -35 -71h138q10 0 18.5 -1t19 -11.5t6.5 -29.5q-9 -42 -63 -42 h-162l-72 -146h203q11 0 19.5 -1t19 -11.5t6.5 -29.5zM620 323h-145l-72 -146h145z" />
<glyph unicode="$" d="M532 207q-41 -195 -223 -216q-9 -47 -46 -47q-35 0 -26 47q-89 8 -153 56q-15 12 -18 15.5t-2 8.5q1 6 15.5 42t15.5 39q7 15 16 15q8 0 11 -5q55 -60 136 -71l43 203q-75 14 -112.5 71t-21.5 136q21 92 75 142q57 52 146 60q0 4 4 11l7 16q4 8 13 14t22 6q37 0 27 -46 q48 -3 89 -24l14 -8q15 -7 29 -18t12 -18q0 -6 -5 -13l-22 -57q-7 -22 -19 -22q-5 0 -10 5q-49 47 -110 54l-37 -175q74 -15 111 -75.5t19 -145.5zM334 445l33 157q-64 -12 -79 -78q-12 -58 46 -79zM411 184q7 32 -4.5 56.5t-36.5 35.5l-39 -183q65 15 80 91z" />
<glyph unicode="%" horiz-adv-x="1029" d="M538 548q-42 -201 -221 -201q-182 0 -139 202q42 201 224 201q179 0 136 -202zM980 708q0 -12 -18 -31l-689 -712q-21 -21 -42 -21q-17 0 -27 12.5t-6 29.5q3 14 20 31l688 712q21 21 41 21q18 0 27.5 -12.5t5.5 -29.5zM998 145q-19 -91 -72.5 -146t-149.5 -55 q-182 0 -139 202q43 201 225 201q179 0 136 -202zM425 549q4 19 5 27t2.5 31.5t-2 35.5t-14.5 23.5t-30 11.5q-18 0 -31.5 -8.5t-22 -18.5t-16 -31.5t-10.5 -33t-9 -38.5l-7 -38q-2 -11 -3.5 -33t2.5 -31.5t14 -18t28 -8.5q66 0 94 130zM884 146q28 129 -39 129 q-18 0 -31.5 -8.5t-22 -18.5t-16 -31t-10.5 -33.5t-8 -37.5l-7 -38q-3 -13 -4.5 -34t2.5 -31t14 -18.5t28 -8.5q66 0 94 130z" />
<glyph unicode="&#x26;" horiz-adv-x="831" d="M774 25q-3 -16 -5.5 -21t-9.5 -7q-5 -4 -43 -11.5t-79 -7.5q-87 0 -173 55q-110 -55 -222 -55q-86 0 -133 49t-32 120q15 68 74 114q23 17 119 74q-22 94 -2 188q18 85 85.5 139t141.5 54q72 0 109.5 -49t24.5 -114q-11 -48 -64.5 -97t-161.5 -116q17 -48 52.5 -103 t50.5 -72q51 35 108 98t103 150q8 17 11.5 21.5t10.5 4.5q6 0 69 -19q13 -4 11 -14q-3 -22 -74.5 -125.5t-170.5 -178.5q38 -24 86 -24q52 0 107 20q8 4 11 4q9 0 10 -7.5t-3 -21.5zM514 552q9 29 0.5 60.5t-34.5 31.5t-54 -24t-39 -74q-13 -69 -2 -139q113 69 129 145z M390 102q-75 98 -100 168q-57 -29 -71 -96q-2 -9 -2.5 -21.5t1.5 -31t14.5 -31t34.5 -12.5q59 0 123 24z" />
<glyph unicode="'" horiz-adv-x="306" d="M322 475q-4 -19 -20.5 -32t-35.5 -13h-45q-19 0 -29 13t-6 32l42 196q4 19 19.5 32t34.5 13h45q19 0 30 -13t7 -32z" />
<glyph unicode="(" horiz-adv-x="428" d="M316 -237q-3 -13 -30 -13h-18q-16 0 -21.5 2.5t-17.5 16.5q-48 53 -74.5 119.5t-31 134t0 121t15.5 106.5q33 155 112.5 280.5t187.5 203.5q15 12 21 14t20 2h18q10 0 14.5 -0.5t8 -3.5t2.5 -9q-1 -3 -9 -11q-33 -32 -59 -63t-61.5 -87t-66 -139t-52.5 -187 q-27 -126 -26.5 -224t16 -148.5t42.5 -96.5q9 -12 9 -18z" />
<glyph unicode=")" horiz-adv-x="428" d="M394 250q-33 -156 -112 -281.5t-188 -202.5q-15 -12 -21 -14t-20 -2h-18q-10 0 -14.5 0.5t-7.5 3.5t-2 9l8 11q34 33 59.5 64t61 87t66 138.5t52.5 186.5q27 126 26 224.5t-16 148.5t-42 96q-9 14 -8 18q2 13 29 13h18q15 0 21 -2.5t18 -16.5q48 -53 74.5 -119.5t31 -134 t0 -121t-15.5 -106.5z" />
<glyph unicode="*" d="M574 436q-5 -23 -25.5 -40.5t-40.5 -17.5q-16 0 -29 16l-81 92v-131v-19q-3 -17 -21.5 -30.5t-40.5 -13.5q-21 0 -34 13t-9 31l8 19l56 131l-120 -92q-21 -16 -36 -16q-20 0 -32.5 17.5t-7.5 40.5q7 32 42 43l142 42l-125 42q-31 10 -23 43q5 23 25 40.5t40 17.5 q16 0 30 -16l80 -92v131v19q4 18 22 31t40 13q21 0 34 -13t9 -31l-8 -19l-56 -131l121 92q21 16 35 16q20 0 33 -17.5t8 -40.5q-7 -31 -42 -43l-142 -42l125 -42q29 -10 23 -43z" />
<glyph unicode="+" horiz-adv-x="856" d="M847 250q-9 -42 -62 -42h-271l-58 -272q-11 -53 -53 -53t-31 53l58 272h-272q-10 0 -18.5 1t-19 11.5t-6.5 29.5q9 42 62 42h272l58 272q11 53 53 53t31 -53l-58 -272h271q10 0 18.5 -1t19 -11.5t6.5 -29.5z" />
<glyph unicode="," horiz-adv-x="306" d="M224 27q-5 -20 -16 -33l-70 -83q-10 -12 -15 -14.5t-20 -2.5h-12q-23 0 -24 9q0 1 1 4l26 45l27 48q-25 0 -29 4t1 23l16 77q5 20 9.5 23.5t23.5 3.5h77q20 0 22.5 -3.5t-1.5 -23.5z" />
<glyph unicode="-" horiz-adv-x="367" d="M354 229q-8 -36 -56 -36h-197q-11 0 -18.5 1t-16.5 10t-5 25q7 36 55 36h197q48 0 41 -36z" />
<glyph unicode="." horiz-adv-x="306" d="M224 27q-5 -20 -9.5 -23.5t-23.5 -3.5h-77q-20 0 -22.5 4t1.5 23l16 77q5 20 9.5 23.5t23.5 3.5h77q20 0 22.5 -3.5t-1.5 -23.5z" />
<glyph unicode="/" d="M638 708q-1 -8 -10 -23l-529 -901q-19 -34 -49 -34q-18 0 -27.5 12.5t-5.5 29.5q1 8 11 23l528 901q19 34 49 34q18 0 27.5 -12.5t5.5 -29.5z" />
<glyph unicode="0" d="M579 343q-6 -29 -9.5 -44.5t-11.5 -46.5t-16 -50l-18 -47q-12 -29 -24 -47l-30 -41q-17 -23 -37.5 -37t-45 -27t-54.5 -19t-64 -6q-48 0 -82.5 14t-54 33.5t-29.5 54t-12 61.5t3 71t9 66.5t13 64.5l14 65q6 25 19.5 69t28 72t39 63t52.5 55t69 34.5t89 14.5t82.5 -14.5 t54 -34.5t29 -55.5t12 -63t-2.5 -72.5t-9.5 -68.5t-13.5 -64.5zM446 357q28 137 32 183q5 104 -67 104q-76 0 -114 -115q-19 -57 -42 -172q-29 -131 -33 -188q-13 -119 63 -119q77 0 113 117q20 59 48 190z" />
<glyph unicode="1" d="M481 36q-8 -36 -56 -36h-285q-11 0 -19 1t-16.5 10t-4.5 25q7 36 55 36h78l110 516q-50 -13 -97 -13q-11 0 -19 1t-16.5 10t-4.5 25q7 36 52 36q96 2 166 55q18 14 39 14q29 0 35 -17t-1 -31l-127 -596h70q10 0 18 -1t17 -10t6 -25z" />
<glyph unicode="2" d="M504 48q-5 -27 -17.5 -37.5t-40.5 -10.5h-343q-27 0 -35 10.5t-3 37.5l2 8q2 10 3.5 13.5t4 7t8.5 8.5l234 204q120 104 140 195q11 52 -8.5 92t-73.5 40q-86 0 -142 -111q-8 -19 -18 -19q-7 0 -13 12l-37 64q35 70 97 110q63 44 149 44q106 0 156 -67.5t30 -162.5 q-9 -42 -35.5 -80.5t-48.5 -58.5t-67 -57l-81 -58l-158 -125h162l68 1q52 0 58 -4q19 -9 12 -44z" />
<glyph unicode="3" d="M546 203q-22 -105 -93 -165t-195 -60q-59 0 -108 21.5t-69.5 42.5t-19.5 30l27 69q6 11 15 11q4 0 12 -10q60 -70 158 -70q33 0 56 10.5t36.5 32t20.5 41t14 49.5q7 39 8 69t-19 47.5t-63 17.5h-44q-20 0 -22.5 3.5t1.5 23.5l4 18q4 22 12 25q2 1 34 4q19 1 29.5 3 t26.5 9t30 20q39 38 52 100q9 42 -1.5 62t-54.5 20q-84 0 -150 -73q-11 -11 -17 -11l-7 4q-3 3 -5 8l-20 40l-3 15q1 4 17.5 20t44 36t72.5 35t92 15q14 0 27 -1t31.5 -3.5t33 -8t31 -14t26.5 -21.5t19 -30.5t8 -41t-5 -53.5q-23 -107 -143 -166q130 -35 101 -174z" />
<glyph unicode="4" d="M561 200q-6 -28 -19.5 -37.5t-38.5 -9.5h-42l-23 -105q-5 -27 -17.5 -37.5t-40.5 -10.5h-28q-29 0 -36.5 11t-1.5 37l23 105h-225q-29 0 -36.5 11t-1.5 37l5 25q5 20 16 36l309 409q17 23 51 23h73q28 0 35.5 -10.5t1.5 -37.5l-84 -399h42q27 0 35 -10t3 -37zM363 247 l72 342h-1q-20 -43 -246 -342h175z" />
<glyph unicode="5" d="M541 221q-25 -120 -102 -181.5t-199 -61.5q-40 0 -73.5 11.5t-53.5 27t-33.5 33t-18.5 29.5t-4 15q1 4 51 65q11 13 19 13q6 0 10 -12q26 -88 120 -88q30 0 53 9.5t36 21t23.5 36t14.5 40t11 46.5q17 59 14 106.5t-46 47.5q-65 0 -113 -59q-13 -17 -22.5 -20.5 t-31.5 -3.5q-13 0 -19 1t-14.5 5.5t-8.5 13.5l2 26l65 306q6 28 19 37t39 9h278q32 0 38.5 -15t-1.5 -35q-3 -13 -5.5 -19.5t-8.5 -15t-17 -12t-28 -3.5h-196l-33 -156q38 13 76 13q109 0 145.5 -62t13.5 -168z" />
<glyph unicode="6" d="M553 236q-14 -66 -34 -109.5t-65 -83.5q-72 -65 -180 -65q-48 0 -83 15.5t-54 37.5t-28.5 58t-12 64.5t2 70.5t8.5 63t11 53q81 376 368 376q37 0 61 -10t27.5 -15t-0.5 -23l-8 -37q-5 -27 -18 -27q-5 0 -13 7q-26 16 -65 16q-98 0 -148 -85q-16 -28 -25 -53.5t-28 -98.5 q60 89 141 89q194 0 143 -243zM413 237l10 47q3 15 6 40t0.5 36t-8 24t-18.5 18t-33 5q-50 0 -82.5 -45t-46.5 -114q-8 -37 -11 -64.5t0 -55t19 -42t44 -14.5q25 0 43.5 8.5t29.5 20.5t20.5 36.5t14 43.5t12.5 56z" />
<glyph unicode="7" d="M640 644q-6 -26 -16 -36q-124 -123 -208.5 -264t-124.5 -316q-8 -39 -56 -39h-46q-29 0 -36.5 11t-1.5 37q66 304 341 550h-169l-70 -1q-54 0 -61 4q-20 9 -11 44l3 13q7 33 22 40.5t56 7.5h63l284 -1q27 -1 32.5 -17.5t-1.5 -32.5z" />
<glyph unicode="8" d="M546 203q-48 -225 -277 -225q-228 0 -180 225q30 137 159 171q-101 37 -76 147q41 195 255 195q213 0 172 -195q-25 -111 -140 -147q115 -35 87 -171zM471 520q15 53 3 80t-67 27t-75 -24t-32 -83q-5 -23 -7 -35t-1 -28.5t8 -25t22.5 -14.5t39.5 -6q30 0 50 8t31.5 26 t16.5 32.5t11 42.5zM408 205q6 26 8 40t2 35t-7 31.5t-23 19t-42 8.5q-32 0 -53.5 -10.5t-34 -33.5t-18 -40.5t-11.5 -49.5q-6 -28 -8.5 -44t-2.5 -35.5t7.5 -29.5t23 -17t41.5 -7q25 0 44 7.5t30.5 17.5t20.5 29.5t13 35t10 43.5z" />
<glyph unicode="9" d="M579 356q-80 -378 -355 -378q-63 0 -101 24.5t-36 36.5q2 7 46 61q11 13 18 13t11 -8q29 -33 80 -33q120 0 168 162q7 24 12 46t6 25q-58 -90 -141 -90q-51 0 -83 15t-53 52q-15 27 -18.5 58.5t-0.5 56t12 62.5q13 62 31 102.5t56 79.5q77 75 196 75q47 0 81 -15 t52.5 -36.5t28 -57.5t11.5 -63.5t-2.5 -70t-8 -63t-10.5 -54.5zM457 445q20 79 10.5 130.5t-57.5 51.5q-27 0 -46.5 -9.5t-31 -21t-22 -38t-15 -44.5t-12.5 -56q-7 -32 -10 -48t-6 -40t0 -35.5t8.5 -24.5t18.5 -18t33 -5q33 0 59.5 21t41 54.5t20.5 50.5t9 32z" />
<glyph unicode=":" horiz-adv-x="306" d="M224 27q-5 -20 -9.5 -23.5t-23.5 -3.5h-77q-20 0 -22.5 4t1.5 23l16 77q5 20 9.5 23.5t23.5 3.5h77q20 0 22.5 -3.5t-1.5 -23.5zM293 354q-4 -20 -8.5 -23.5t-23.5 -3.5h-77q-20 0 -23 3.5t1 23.5l17 77q4 20 8.5 23.5t23.5 3.5h77q20 0 23 -4t-1 -23z" />
<glyph unicode=";" horiz-adv-x="306" d="M224 27q-5 -20 -16 -33l-70 -83q-10 -12 -15 -14.5t-20 -2.5h-12q-23 0 -24 9q0 1 1 4l26 45l27 48q-25 0 -29 4t1 23l16 77q5 20 9.5 23.5t23.5 3.5h77q20 0 22.5 -3.5t-1.5 -23.5zM293 354q-4 -20 -8.5 -23.5t-23.5 -3.5h-77q-20 0 -23 3.5t1 23.5l17 77q4 20 8.5 23.5 t23.5 3.5h77q20 0 23 -4t-1 -23z" />
<glyph unicode="&#x3c;" horiz-adv-x="894" d="M785 -56q-2 -11 -13 -20.5t-24 -9.5l-21 7l-559 298q-22 11 -19 32q4 19 32 31l689 299q12 6 21 6q13 0 19.5 -9.5t4.5 -20.5q-3 -19 -31 -32l-634 -275l517 -274q22 -13 18 -32z" />
<glyph unicode="=" horiz-adv-x="856" d="M872 365q-9 -42 -63 -42h-625q-11 0 -19.5 1t-19 11.5t-6.5 29.5q9 42 62 42h627q10 0 18.5 -1t19 -11.5t6.5 -29.5zM823 135q-9 -42 -62 -42h-627q-10 0 -18.5 1t-19 11.5t-6.5 29.5q9 42 63 42h625q11 0 19.5 -1t19 -11.5t6.5 -29.5z" />
<glyph unicode="&#x3e;" horiz-adv-x="894" d="M850 251q-4 -21 -31 -32l-690 -299q-12 -6 -20 -6q-14 0 -20.5 9.5t-4.5 20.5q4 20 32 32l633 275l-516 274q-23 12 -19 32q3 12 14 21t23 9q9 0 21 -7l560 -298q22 -11 18 -31z" />
<glyph unicode="?" horiz-adv-x="519" d="M575 554q-16 -77 -80 -116q-124 -81 -146 -188l-6 -27q-4 -20 -8.5 -23.5t-24.5 -3.5h-49q-23 0 -26 8q0 7 7 35q29 139 151 241q16 13 22.5 20t13 21.5t11.5 37.5q9 42 -1 58t-57 16q-82 0 -149 -64q-9 -9 -15 -9q-10 0 -11 17l-8 49l-2 16q2 9 36 25q78 38 167 38 q25 0 42 -1t49.5 -9t51.5 -22.5t30 -45t2 -73.5zM319 48q-5 -27 -17.5 -37.5t-40.5 -10.5h-35q-27 0 -35 10.5t-3 37.5l8 35q5 27 17.5 37.5t40.5 10.5h35q29 0 36 -11t2 -37z" />
<glyph unicode="@" horiz-adv-x="733" d="M690 88q-2 -10 -41.5 -33t-71.5 -36q-78 -30 -156 -30q-176 0 -250 89t-36 269q38 179 149 268.5t289 89.5q63 0 104.5 -17t62.5 -44.5t26.5 -73t1 -92t-18.5 -111.5q-5 -24 -8.5 -38t-14 -43t-22 -48.5t-32.5 -44t-46 -39.5t-62 -25.5t-81 -10.5q-212 0 -163 229 t260 229q35 0 65 -7q-12 64 -88 64q-130 0 -208 -83q-66 -71 -94 -203q-29 -135 11 -209q44 -77 173 -77q77 0 163 36q7 4 25 4h38q10 0 14.5 -0.5t8 -3.5t2.5 -9zM625 347q32 157 -60 157t-125 -157q-36 -157 59 -157q93 0 126 157z" />
<glyph unicode="A" horiz-adv-x="733" d="M696 27q-6 -27 -45 -27h-54q-23 0 -35 7.5t-15 17t-5 30.5l-14 96h-277l-62 -111q-23 -40 -72 -40h-36q-11 0 -17 1t-12.5 7.5t-3.5 18.5q2 8 9 20l339 604q25 43 74 43h88q14 0 22.5 -1.5t19 -11.5t12.5 -30l83 -604q2 -14 1 -20zM516 237l-35 281q-3 23 -2 49h-1 q-18 -41 -62 -118l-117 -212h217z" />
<glyph unicode="B" horiz-adv-x="733" d="M712 194q-13 -63 -50.5 -105.5t-87.5 -60t-86.5 -23t-74.5 -5.5h-274q-27 0 -35 10.5t-3 37.5l127 598q6 27 19 37.5t40 10.5h246q184 0 215 -99q11 -35 1 -81q-12 -58 -57.5 -96.5t-119.5 -54.5q170 -28 140 -169zM613 511q6 27 -3 46t-24 28.5t-38.5 15t-38 6.5 t-31.5 1h-117l-45 -211h116q14 0 26.5 0.5t40 7t48 17t40 34t26.5 55.5zM574 196q8 36 -2.5 62.5t-27 39t-44 19t-41.5 7.5t-32 1h-126l-51 -239h145q156 0 179 110z" />
<glyph unicode="C" horiz-adv-x="703" d="M657 49q-2 -8 -6.5 -11.5t-26.5 -14.5q-55 -26 -96 -35.5t-103 -9.5q-369 0 -290 369q77 369 446 369q96 0 171 -29q19 -7 23 -9.5t2 -9.5q-3 -9 -5 -13l-33 -87q-7 -18 -18 -18q-6 0 -13 7q-29 30 -62.5 44.5t-86.5 14.5q-59 0 -106 -20t-75 -47t-49 -67.5t-30 -69.5 t-17 -65q-13 -58 -12.5 -103.5t16 -84.5t56.5 -60t107 -21q62 0 100 12t88 44q16 11 22 11q11 0 9 -18q-1 -4 -3 -22.5t-4.5 -34.5t-3.5 -21z" />
<glyph unicode="D" horiz-adv-x="794" d="M805 342q-34 -159 -131.5 -250.5t-270.5 -91.5h-264q-27 0 -35 10.5t-3 37.5l127 598q6 27 19 37.5t40 10.5h264q175 0 237 -105q50 -86 17 -247zM661 342q7 35 10.5 59t4 59t-9.5 58t-29 45.5t-56 33.5t-89 11h-128l-111 -522h129q61 0 108.5 16.5t75 40t48 61.5 t29.5 67t18 71z" />
<glyph unicode="E" horiz-adv-x="642" d="M605 48q-5 -27 -17.5 -37.5t-40.5 -10.5h-408q-27 0 -35 10.5t-3 37.5l127 595q6 28 18.5 38t39.5 10h393q29 0 36 -11t2 -37l-2 -8q-7 -33 -21.5 -40.5t-46.5 -7.5l-235 3h-49l-39 -185h263q27 0 35.5 -10t2.5 -37q-6 -28 -19 -37.5t-39 -9.5h-263l-43 -205l146 2l155 2 q21 0 30 -1.5t15 -12.5t1 -34z" />
<glyph unicode="F" horiz-adv-x="611" d="M699 635q-7 -33 -21.5 -40.5t-45.5 -7.5l-226 3h-43l-41 -197h232q27 0 35 -10t3 -37q-6 -28 -19.5 -37.5t-38.5 -9.5h-232l-54 -251q-5 -27 -17.5 -37.5t-40.5 -10.5h-51q-27 0 -35 10.5t-3 37.5l127 595q6 28 18.5 38t39.5 10h377q29 0 36 -11t2 -37z" />
<glyph unicode="G" horiz-adv-x="733" d="M670 54q-3 -19 -7 -23q-7 -5 -35 -16t-88.5 -24t-119.5 -13q-180 0 -252 93t-33 276q78 369 444 369q101 0 185 -40q23 -12 24 -17q1 -2 0 -5q-3 -9 -5 -13l-33 -87q-7 -18 -18 -18q-4 0 -9 5l-27 27q-8 9 -28.5 23t-47 19.5t-61.5 5.5q-221 0 -277 -269 q-8 -38 -11.5 -70t2 -71t22.5 -65.5t55.5 -44.5t95.5 -18q49 0 96 11l30 141h-69q-20 0 -22.5 4t1.5 23l8 40q5 20 9.5 23.5t23.5 3.5h178q20 0 22.5 -4t-1.5 -23z" />
<glyph unicode="H" horiz-adv-x="794" d="M712 48q-5 -27 -17.5 -37.5t-40.5 -10.5h-51q-29 0 -36.5 11t-1.5 37l57 266h-317l-57 -266q-5 -27 -17.5 -37.5t-40.5 -10.5h-51q-27 0 -35 10.5t-3 37.5l127 598q6 27 19 37.5t40 10.5h51q29 0 36 -11t1 -37l-50 -238h317l50 238q6 27 18.5 37.5t40.5 10.5h51 q29 0 36 -11t1 -37z" />
<glyph unicode="I" horiz-adv-x="331" d="M249 48q-5 -27 -17.5 -37.5t-40.5 -10.5h-51q-27 0 -35 10.5t-3 37.5l127 598q6 27 19 37.5t40 10.5h51q29 0 36 -11t1 -37z" />
<glyph unicode="J" horiz-adv-x="519" d="M459 149q-18 -84 -81 -127.5t-148 -43.5t-156 35q-14 6 -18 10t-3 10l34 88q8 19 18 19q6 0 13 -12q28 -50 94 -50q31 0 52 8t31.5 23.5t14 23.5t6.5 22l104 491q6 27 18.5 37.5t40.5 10.5h48q29 0 36 -11t1 -37z" />
<glyph unicode="K" horiz-adv-x="764" d="M707 29q-4 -20 -13 -24.5t-28 -4.5h-60q-34 0 -46 21l-160 300l-133 -105l-36 -168q-5 -27 -17.5 -37.5t-40.5 -10.5h-34q-27 0 -35 10.5t-3 37.5l127 598q6 27 19 37.5t40 10.5h34q29 0 36 -11t1 -37l-58 -276l386 304q26 20 63 20h61q10 0 15.5 -0.5t10.5 -5.5t3 -15 q-3 -10 -16 -21l-316 -247z" />
<glyph unicode="L" horiz-adv-x="581" d="M544 48q-5 -27 -17.5 -37.5t-40.5 -10.5h-347q-27 0 -35 10.5t-3 37.5l127 598q6 27 19 37.5t40 10.5h51q29 0 36 -11t1 -37l-116 -545l250 4q21 0 31 -7.5t9 -18t-3 -22.5z" />
<glyph unicode="M" horiz-adv-x="978" d="M896 48q-5 -27 -17.5 -37.5t-40.5 -10.5h-27q-29 0 -36.5 11t-1.5 37l110 517h-1q-18 -38 -110 -186l-195 -314q-18 -29 -35.5 -36t-49.5 -7q-22 0 -32 1.5t-20.5 11.5t-14.5 30l-56 285q-32 172 -34 215h-1l-110 -517q-5 -27 -17.5 -37.5t-40.5 -10.5h-27 q-27 0 -35 10.5t-3 37.5l127 598q6 27 19 37.5t40 10.5h83q50 0 58 -41l61 -316q31 -180 31 -188h1q17 39 104 178l200 324q17 28 35 35.5t42 7.5h84q29 0 36 -11t1 -37z" />
<glyph unicode="N" horiz-adv-x="794" d="M712 48q-5 -27 -17.5 -37.5t-40.5 -10.5h-93q-11 0 -17 1t-16 4t-17.5 12t-11.5 23l-162 533h-1l-112 -525q-5 -27 -17.5 -37.5t-40.5 -10.5h-27q-27 0 -35 10.5t-3 37.5l127 598q6 27 19 37.5t40 10.5h93q11 0 17 -1t16 -4t17.5 -12t11.5 -23l162 -533h1l111 525 q6 27 18.5 37.5t40.5 10.5h27q29 0 36 -11t1 -37z" />
<glyph unicode="O" horiz-adv-x="794" d="M805 342q-78 -364 -414 -364q-335 0 -257 364q80 374 415 374q334 0 256 -374zM661 358q6 28 9 44.5t6.5 49.5t1.5 54.5t-10 49t-24 43.5t-44.5 27.5t-67.5 11.5t-72 -11.5t-56 -28t-42.5 -44t-31 -49t-22 -54.5t-14.5 -49t-10 -44q-6 -29 -9 -46t-7 -52.5t-2.5 -58.5 t9 -53t23.5 -47.5t44 -30t67 -12.5t72.5 12.5t56.5 30.5t43 47.5t32 53t23 58.5t15 52z" />
<glyph unicode="P" horiz-adv-x="703" d="M743 478q-23 -106 -99 -158t-197 -52h-152l-47 -220q-5 -27 -17.5 -37.5t-40.5 -10.5h-51q-27 0 -35 10.5t-3 37.5l127 598q6 27 19 37.5t40 10.5h250q120 0 174.5 -53t31.5 -163zM604 478q7 26 6 49.5t-10 41.5t-37.5 28.5t-75.5 10.5h-123l-55 -261h122q48 0 81 10 t51 31t26 40.5t15 49.5z" />
<glyph unicode="Q" horiz-adv-x="794" d="M805 342q-52 -234 -201 -314l47 -84q11 -21 9 -28q-5 -22 -41 -22h-80q-24 0 -31 5t-18 30l-26 54q-33 -5 -73 -5q-335 0 -257 364q80 374 415 374q334 0 256 -374zM661 343q6 28 9 45t7 51.5t2 57.5t-10 52t-24 46.5t-44.5 30t-68.5 12.5q-39 0 -73 -12.5t-57.5 -30 t-44 -46.5t-32 -52t-22.5 -57.5t-15 -51.5t-10 -45q-6 -27 -9 -44.5t-6.5 -51t-1.5 -55.5t10 -50t24 -45t45 -29t68 -12l20 2l-13 32q-35 68 -33 81q5 23 41 23h61q16 0 21 -1.5t11 -9.5l40 -71q71 66 105 231z" />
<glyph unicode="R" horiz-adv-x="703" d="M659 30q-3 -14 -10 -21t-13.5 -8t-19.5 -1h-59q-13 0 -19 1t-12.5 6t-10.5 17l-103 287h-111l-56 -263q-5 -27 -17.5 -37.5t-40.5 -10.5h-48q-27 0 -35 10.5t-3 37.5l127 598q6 27 19 37.5t40 10.5h240q192 0 221 -112q9 -37 -1 -85q-30 -139 -196 -177zM607 496 q12 56 -10 84t-103 28h-130l-48 -225h130q84 0 117 29.5t44 83.5z" />
<glyph unicode="S" horiz-adv-x="611" d="M592 200q-24 -113 -99.5 -167.5t-192.5 -54.5q-73 0 -142 23l-12 5l-26 11q-13 6 -27.5 13.5t-23 15.5t-7.5 14q0 3 5 13l33 87q7 18 18 18q6 0 15 -12q72 -79 190 -79q119 0 140 97q8 39 -16 69q-12 14 -29.5 20.5t-62.5 17.5q-48 12 -68 18t-46 21.5t-45 40.5 q-44 58 -27 137q44 208 288 208q100 0 173 -40q17 -10 19.5 -13t1.5 -9q-3 -9 -5 -13l-33 -87q-7 -18 -18 -18q-4 0 -18 16q-48 61 -142 61q-119 0 -137 -87q-8 -37 16 -58t50 -27l91 -22q74 -18 114 -78t23 -141z" />
<glyph unicode="T" horiz-adv-x="733" d="M826 632q-5 -23 -15.5 -34t-19.5 -12.5t-27 -1.5l-199 3l-115 -539q-5 -27 -17.5 -37.5t-40.5 -10.5h-51q-27 0 -35 10.5t-3 37.5l115 539l-202 -3q-18 0 -26.5 1.5t-14.5 12.5t-1 34l2 8q6 28 18.5 38t39.5 10h556q29 0 36.5 -11t1.5 -37z" />
<glyph unicode="U" horiz-adv-x="764" d="M721 229q-13 -62 -42.5 -109t-64.5 -73.5t-79 -42.5t-80.5 -21t-75.5 -5q-29 0 -55.5 3t-55.5 10t-50.5 19.5t-42 31.5t-30 45.5t-13 62t7.5 80.5l88 416q6 27 19 37.5t40 10.5h51q29 0 36 -11t1 -37l-89 -420q-18 -82 6 -122t107 -40q86 0 127 41t58 122l89 419 q6 27 18.5 37.5t40.5 10.5h40q29 0 36 -11t1 -37z" />
<glyph unicode="V" horiz-adv-x="733" d="M847 667l-9 -18l-352 -605q-12 -20 -26.5 -30.5t-23.5 -12t-24 -1.5h-92q-11 0 -17 1t-15.5 4.5t-15 12.5t-7.5 24l-95 607q-2 13 -1 18q6 27 45 27h54q11 0 17 -1t15.5 -4.5t15 -13t7.5 -24.5l67 -447q4 -24 7.5 -51t3.5 -28l84 154l214 371q9 16 19 25.5t21.5 13 t18 4.5t17.5 1h39q11 0 17 -1t12.5 -7.5t3.5 -18.5z" />
<glyph unicode="W" horiz-adv-x="1039" d="M1155 665l-8 -19l-292 -604q-7 -15 -15.5 -24t-19 -12.5t-17 -4.5t-17.5 -1h-72q-10 0 -16 1t-15 4.5t-13.5 12.5t-5.5 24l-22 377q-5 83 -4 148h-1l-60 -130l-188 -391q-10 -21 -24 -32t-23 -12.5t-24 -1.5h-66q-11 0 -17 1t-15 4.5t-13.5 12.5t-5.5 24l-36 604v19 q7 29 48 29h34q14 0 22 -1.5t17.5 -11.5t10.5 -30l18 -320q9 -146 6 -203h1q8 20 41 95l46 99l158 328q10 20 24 30.5t23 12t24 1.5h66q25 0 36.5 -8.5t13.5 -35.5l22 -405q5 -89 4 -117h1q14 32 59 128l190 394q10 20 24 30.5t23 12t23 1.5h21q11 0 17.5 -1t13 -8t3.5 -20z " />
<glyph unicode="X" horiz-adv-x="733" d="M699 22q-5 -22 -41 -22h-83q-12 0 -18.5 1t-14 6t-12.5 15l-116 240l-212 -238q-13 -15 -22 -19.5t-32 -4.5h-75q-10 0 -16 0.5t-11.5 6t-3.5 16.5q1 6 14 20l305 325l-158 284q-7 11 -6 20q5 22 40 22h83q13 0 19 -1t13.5 -6t13.5 -16l95 -185l171 187q20 21 54 21h75 q10 0 16 -0.5t11.5 -6t3.5 -16.5q-2 -7 -15 -20l-266 -283l183 -326q6 -11 5 -20z" />
<glyph unicode="Y" horiz-adv-x="733" d="M851 671q-3 -10 -14 -21l-340 -373l-49 -230q-6 -27 -18.5 -37t-39.5 -10h-48q-27 0 -35 10.5t-3 37.5l49 230l-182 373q-6 12 -4 20q5 23 41 23h66q28 0 44 -8.5t28 -32.5l78 -162q27 -55 37 -88q24 35 95 113l127 140q36 38 88 38h49q10 0 16 -0.5t11.5 -6t3.5 -16.5z " />
<glyph unicode="Z" horiz-adv-x="672" d="M626 48q-5 -27 -17.5 -37.5t-40.5 -10.5h-459q-27 0 -35 10.5t-3 37.5l2 8q4 21 17 35l470 508h-35l-261 -3h-18q-6 0 -14.5 1.5t-12 4.5t-6.5 8.5t-2.5 14t2.5 20.5q6 26 17.5 37.5t41.5 11.5h438q32 0 38.5 -15t-1.5 -35q-4 -17 -6.5 -22.5t-11.5 -14.5l-468 -506 l320 4q21 0 30.5 -1.5t15.5 -12.5t1 -34z" />
<glyph unicode="[" horiz-adv-x="343" d="M273 -214q-8 -36 -56 -36h-135q-29 0 -36.5 11t-1.5 37l192 904q6 27 18 37.5t40 10.5h135q48 0 41 -36q-8 -36 -56 -36h-53l-182 -856h53q48 0 41 -36z" />
<glyph unicode="\" horiz-adv-x="575" d="M463 -219q-3 -14 -14 -22.5t-22 -8.5q-10 0 -16 5t-7.5 10t-3.5 15l-181 919q-3 13 -2 20q3 14 14 22.5t22 8.5q10 0 15.5 -4.5t7.5 -10t4 -15.5l182 -919q2 -16 1 -20z" />
<glyph unicode="]" horiz-adv-x="343" d="M212 -202q-5 -27 -17.5 -37.5t-40.5 -10.5h-135q-11 0 -18.5 1t-16.5 10t-5 25q7 36 55 36h53l182 856h-53q-11 0 -18.5 1t-16.5 10t-5 25q7 36 55 36h135q29 0 36.5 -11t1.5 -37z" />
<glyph unicode="^" horiz-adv-x="556" d="M685 584l-17 -22l-245 123l-298 -123l-6 22l317 160z" />
<glyph unicode="_" horiz-adv-x="733" d="M692 -193h-733l29 136h733z" />
<glyph unicode="`" d="M470 550q-3 -13 -30 -13h-37l-131 129q-10 8 -8 15q3 13 30 13h82q14 0 18 -1.5t9 -10.5l61 -117z" />
<glyph unicode="a" horiz-adv-x="525" d="M474 48q-5 -27 -17.5 -37.5t-40.5 -10.5h-37q-29 0 -36.5 11t-1.5 37l4 20q-70 -79 -172 -79q-63 0 -94.5 44t-19.5 100q9 41 44 71.5t74 44.5t90 22.5t75 9.5t46 1l7 35q11 44 0 68t-50 24q-92 0 -169 -67q-8 -6 -13 -6q-12 0 -10 11q0 17 8 73q2 8 7.5 12t23.5 11 q83 32 171 32q188 0 172 -137l-4 -22zM361 154l18 87l-29 -2q-14 -1 -42.5 -7.5t-50.5 -17t-41.5 -31t-25.5 -48.5q-6 -30 8.5 -52t44.5 -22q7 0 18 2t33.5 9t41 28.5t25.5 53.5z" />
<glyph unicode="b" horiz-adv-x="561" d="M572 231q-4 -18 -7 -29.5t-13 -39.5t-21.5 -47.5t-32.5 -45t-46.5 -41.5t-62.5 -27.5t-81 -11.5q-67 0 -103 50q-9 -39 -56 -39h-40q-27 0 -35 10.5t-3 37.5l127 598q6 27 19 37.5t40 10.5h37q29 0 36 -11t1 -37l-49 -233q10 9 26.5 19.5t53 23.5t73.5 13q187 0 137 -238 zM436 230q5 25 7.5 39t5 37t-1.5 36.5t-11.5 27.5t-24.5 20.5t-41 6.5q-52 0 -96 -35l-56 -262q22 -39 70 -39q32 0 57 11.5t39 25.5t25.5 41.5t15.5 43.5t11 47z" />
<glyph unicode="c" horiz-adv-x="489" d="M468 50q-1 -7 -6 -11t-29 -15q-76 -35 -161 -35q-237 0 -186 241q52 245 294 245q49 0 77.5 -7t63.5 -25q9 -5 12.5 -7.5t6 -6t1.5 -7.5t-12.5 -33.5t-14.5 -35.5q-6 -13 -16 -13q-6 0 -15 11q-25 25 -49 35.5t-70 10.5q-36 0 -62 -13t-41 -40.5t-22.5 -50t-16.5 -61.5 q-5 -24 -7 -35.5t-4 -35t1.5 -36.5t11.5 -28.5t25 -22.5t42 -7q83 0 158 56q12 10 18 10q10 0 10 -13q-3 -36 -9 -70z" />
<glyph unicode="d" horiz-adv-x="561" d="M509 48q-5 -27 -17.5 -37.5t-40.5 -10.5h-40q-26 0 -35 10t-3 37q-67 -58 -140 -58q-195 0 -148 239q54 241 255 241q73 0 115 -50l48 227q6 27 18.5 37.5t40.5 10.5h37q29 0 36 -11t1 -37zM390 125l51 241q-27 31 -72 31q-32 0 -57 -11.5t-39 -25.5t-25.5 -41t-15.5 -43 l-11 -48q-5 -27 -7 -39.5t-4.5 -36.5t1 -36.5t11 -27t24.5 -21t41 -6.5q31 0 64 18q16 10 24 17.5t10.5 12.5t4.5 16z" />
<glyph unicode="e" horiz-adv-x="511" d="M534 260q-4 -21 -14.5 -32t-19.5 -12.5t-24 -1.5h-272q-4 -24 -5 -41t2 -40t13 -37t32 -24.5t54 -10.5q83 0 163 58q13 10 19 10q7 0 8 -4.5t0 -27.5q-5 -41 -6 -44q-1 -8 -7 -12.5t-27 -13.5q-84 -38 -169 -38q-120 0 -173 61.5t-27 182.5q24 116 98 179t192 63 q108 0 146.5 -57t16.5 -158zM425 267q6 40 6 70t-18.5 48t-56.5 18q-103 0 -139 -136h208z" />
<glyph unicode="f" horiz-adv-x="336" d="M513 621q-5 -26 -19 -26q-6 0 -12 10q-24 28 -66 28q-23 0 -38.5 -6t-23.5 -18t-11 -20.5t-6 -21.5l-24 -109h51q48 0 41 -36q-8 -36 -56 -36h-48l-72 -338q-5 -27 -17.5 -37.5t-40.5 -10.5h-37q-27 0 -35 10.5t-3 37.5l72 338q-16 0 -25 1t-18 9.5t-5 25.5q7 36 63 36 l17 80q36 167 231 167q36 0 64 -6q24 -5 28 -9.5t0 -22.5z" />
<glyph unicode="g" d="M620 405q-2 -13 -16 -13q-5 0 -13 4q-38 11 -90 11q22 -41 8 -104q-35 -165 -236 -165q-80 0 -121 26l-5 -15q-5 -23 11 -45q12 -12 62 -12h48h41q14 0 39 -1t38.5 -3t34.5 -6t32 -10l25 -14q14 -8 20.5 -19.5t12 -26t5 -34t-5.5 -42.5q-30 -142 -280 -142 q-112 0 -165 27q-38 20 -49.5 51.5t-4.5 60.5q12 61 85 88q-19 35 -10 79q8 42 44 81q-40 43 -22 123q35 165 236 165q89 0 134 -35q65 35 127 35q13 0 15 -3.5t1 -22.5q0 -34 -1 -38zM382 304q5 28 6.5 48.5t-13 32.5t-47.5 12q-25 0 -42 -6t-26.5 -21t-14.5 -28.5 t-10 -38.5q-5 -28 -6.5 -48.5t13 -32.5t47.5 -12q25 0 42 6t26.5 21t14.5 28.5t10 38.5zM407 -67q5 26 -23 38t-90 12h-116q-16 0 -25.5 -1.5t-21.5 -12.5t-17 -33q-3 -17 2 -29.5t18 -20t26 -12t32.5 -6t29.5 -2t25 -0.5q146 0 160 67z" />
<glyph unicode="h" horiz-adv-x="561" d="M510 48q-5 -27 -17.5 -37.5t-40.5 -10.5h-40q-29 0 -36.5 11t-1.5 37l59 275q9 38 0 56t-43 18q-43 0 -83.5 -33.5t-53.5 -94.5l-47 -221q-5 -27 -17.5 -37.5t-40.5 -10.5h-40q-27 0 -35 10.5t-3 37.5l127 598q6 27 19 37.5t40 10.5h37q29 0 36 -11t1 -37l-58 -274h1 q14 20 33.5 38.5t60.5 38.5t87 20q77 0 104 -33.5t11 -110.5z" />
<glyph unicode="i" horiz-adv-x="256" d="M204 48q-5 -27 -17.5 -37.5t-40.5 -10.5h-37q-27 0 -35 10.5t-3 37.5l77 362q6 28 18.5 38t39.5 10h37q29 0 36.5 -11t1.5 -37zM330 606q-6 -25 -17.5 -36.5t-40.5 -11.5h-51q-30 0 -36.5 11.5t-1.5 36.5l4 19q5 27 17.5 37.5t40.5 10.5h51q29 0 36.5 -11t1.5 -37z" />
<glyph unicode="j" horiz-adv-x="286" d="M217 -32q-37 -173 -186 -173q-47 0 -93 16.5t-43 30.5q1 4 18 32q11 19 14.5 23t9.5 4q1 0 9 -4q24 -18 59 -18q21 0 35.5 6t22 17.5t10.5 20t6 21.5l99 466q6 27 18 37.5t40 10.5h37q29 0 36.5 -11t1.5 -37zM353 606q-6 -25 -17.5 -36.5t-40.5 -11.5h-51 q-30 0 -36.5 11.5t-1.5 36.5l4 19q5 27 17.5 37.5t40.5 10.5h51q29 0 36.5 -11t1.5 -37z" />
<glyph unicode="k" horiz-adv-x="531" d="M502 22q-5 -22 -41 -22h-48q-22 0 -30 4.5t-18 20.5l-94 170l-56 -43l-22 -104q-5 -27 -17.5 -37.5t-40.5 -10.5h-18q-27 0 -35 10.5t-3 37.5l127 598q6 27 19 37.5t40 10.5h21q29 0 36 -11t1 -37l-73 -343l173 134q27 21 64 21h58q10 0 15.5 -0.5t11 -5.5t3.5 -15 q-2 -9 -20 -22l-184 -143l125 -228q5 -8 6 -15v-7z" />
<glyph unicode="l" horiz-adv-x="256" d="M204 48q-5 -27 -17.5 -37.5t-40.5 -10.5h-37q-27 0 -35 10.5t-3 37.5l127 598q6 27 19 37.5t40 10.5h37q29 0 36 -11t1 -37z" />
<glyph unicode="m" horiz-adv-x="867" d="M816 48q-5 -27 -17.5 -37.5t-40.5 -10.5h-40q-27 0 -35 10.5t-3 37.5l59 275q9 40 0 57t-44 17q-42 0 -83 -33t-54 -95l-47 -221q-5 -27 -17.5 -37.5t-40.5 -10.5h-40q-27 0 -35 10.5t-3 37.5l59 275q9 40 0 57t-44 17q-42 0 -83 -33t-54 -95l-47 -221 q-5 -27 -17.5 -37.5t-40.5 -10.5h-40q-27 0 -35 10.5t-3 37.5l78 368q6 27 19 37.5t40 10.5h34q29 0 36 -11t1 -37l-10 -50h1q27 41 73 70q52 33 113 33q22 0 38.5 -2.5t39 -11t34 -30t10.5 -55.5q75 99 183 99q77 0 104 -33.5t11 -110.5z" />
<glyph unicode="n" horiz-adv-x="561" d="M510 48q-5 -27 -17.5 -37.5t-40.5 -10.5h-40q-29 0 -36.5 11t-1.5 37l59 275q9 38 0 56t-43 18q-43 0 -83.5 -33.5t-53.5 -94.5l-47 -221q-5 -27 -17.5 -37.5t-40.5 -10.5h-40q-27 0 -35 10.5t-3 37.5l78 368q6 27 19 37.5t40 10.5h34q29 0 36 -11t1 -37l-10 -50h1 q15 21 33.5 40t61 41t90.5 22q77 0 104 -33.5t11 -110.5z" />
<glyph unicode="o" d="M566 225q-50 -236 -294 -236t-193 236q53 250 297 250q243 0 190 -250zM432 237q7 31 10 48t3 43t-8 40t-27 24.5t-50 10.5t-54.5 -11t-37 -24.5t-25 -40t-15.5 -42.5t-11 -48q-6 -27 -8.5 -41t-4.5 -38t2 -37t12.5 -27t26.5 -20.5t44 -6.5q38 0 64.5 14t42 43t22 51.5 t14.5 61.5z" />
<glyph unicode="p" horiz-adv-x="561" d="M572 231q-6 -27 -11 -46t-25 -59.5t-46 -67t-73.5 -48t-107.5 -21.5q-69 0 -104 50l-39 -185q-5 -27 -17.5 -37.5t-40.5 -10.5h-40q-28 0 -36 10.5t-2 37.5l118 556q6 28 18.5 38t39.5 10h37q26 0 35 -10t3 -37q75 58 161 58q43 0 73 -13.5t43.5 -38t20.5 -48.5 t4.5 -55.5t-5 -47.5t-6.5 -35zM436 229q33 162 -69 162q-51 0 -94 -33l-51 -240q-4 -13 -1.5 -20.5t17.5 -19.5q19 -17 49 -17q111 0 149 168z" />
<glyph unicode="q" horiz-adv-x="561" d="M468 -146q-5 -27 -17.5 -37.5t-40.5 -10.5h-40q-29 0 -36.5 11t-1.5 37l41 194q-64 -59 -136 -59q-201 0 -152 239q6 30 15 56.5t29 62.5t46.5 61t71 43t99.5 18q76 0 105 -67l4 19q6 27 18.5 37.5t40.5 10.5h37q29 0 36 -11t1 -37zM390 115l43 198q5 31 -15 55 q-17 23 -50 23q-110 0 -147 -164q-34 -166 67 -166q52 0 102 54z" />
<glyph unicode="r" horiz-adv-x="372" d="M440 395q-4 -19 -8 -22.5t-18 -4.5q-56 -4 -106.5 -38.5t-64.5 -99.5l-39 -182q-5 -27 -17.5 -37.5t-40.5 -10.5h-37q-27 0 -35 10.5t-3 37.5l78 368q6 27 19 37.5t40 10.5h32q29 0 36 -11t1 -37l-13 -65h1q25 38 52 63.5t51 36.5t40 14.5t30 3.5q12 0 14 -6t-2 -21z" />
<glyph unicode="s" horiz-adv-x="422" d="M426 141q-32 -152 -209 -152q-58 0 -110 17l-35 16q-34 15 -31 26q1 6 15.5 42t15.5 39q8 15 17 15q6 0 12 -8q43 -69 132 -69q79 0 90 54q3 15 -2 26.5t-18.5 17.5t-23 8.5t-24.5 5.5q-35 7 -51 11t-36 14t-33 25q-40 44 -27 103q30 143 209 143q55 0 95 -12 q7 -3 20.5 -7t26 -12t10.5 -15q0 -2 -6 -17t-12.5 -33t-7.5 -19q-7 -13 -16 -13q-6 0 -14 10q-45 47 -119 47q-72 0 -83 -49q-4 -18 7.5 -30t27 -16.5t48.5 -10.5q27 -5 40 -8.5t32 -14t35 -27.5q39 -44 25 -107z" />
<glyph unicode="t" horiz-adv-x="404" d="M383 47q-4 -20 -84 -42q-55 -16 -108 -16q-105 0 -75 144l54 253h-20q-11 0 -18.5 1t-16.5 10t-5 25q7 36 55 36h23l18 83q6 28 18.5 38t39.5 10h31q29 0 36.5 -11t1.5 -37l-18 -83h89q48 0 41 -36q-8 -36 -56 -36h-89l-50 -236q-9 -50 -3.5 -66.5t24.5 -16.5q38 0 87 30 q8 7 13 7q10 0 11 -26q1 -30 1 -31z" />
<glyph unicode="u" horiz-adv-x="561" d="M510 48q-5 -27 -17.5 -37.5t-40.5 -10.5h-37q-29 0 -36.5 11t-1.5 37l6 26q-65 -85 -163 -85q-83 0 -116 30t-17 107l60 284q6 28 18.5 38t39.5 10h40q29 0 36.5 -11t1.5 -37l-62 -293q-10 -40 -1.5 -53.5t49.5 -13.5q51 0 86 35t46 88l50 237q6 27 18 37.5t40 10.5h40 q29 0 36.5 -11t1.5 -37z" />
<glyph unicode="v" horiz-adv-x="500" d="M564 430q0 -3 -9 -19l-197 -369q-23 -42 -72 -42h-73q-49 0 -54 42l-41 369q-1 7 -1 19q6 28 46 28h24q22 0 34.5 -7t15 -14.5t3.5 -21.5l35 -302l163 302q12 23 26.5 33t44.5 10h21q11 0 17.5 -1t13 -7.5t3.5 -19.5z" />
<glyph unicode="w" horiz-adv-x="744" d="M810 430l-188 -384q-13 -27 -27.5 -36.5t-45.5 -9.5h-68q-18 0 -29 3t-16 11.5t-6.5 16t-2.5 24.5q-13 210 -8 262l-1 -1q-12 -40 -118 -261q-16 -33 -30.5 -44t-47.5 -11h-28q-17 0 -25.5 1.5t-18 12.5t-10.5 32l-25 384q4 13 13 19.5t16 7.5t20 1h20q30 0 40.5 -9.5 t12.5 -35.5l20 -283l86 174q60 123 66 131q19 23 57 23q16 0 26.5 -3.5t15 -11.5t6 -13.5t2.5 -16.5l21 -300l143 290q18 38 32.5 46.5t51.5 8.5q15 0 21.5 -0.5t14 -3t9.5 -8.5t1 -16z" />
<glyph unicode="x" horiz-adv-x="500" d="M479 22q-5 -22 -40 -22h-44q-13 0 -19 0.5t-12.5 5t-11.5 14.5l-71 144l-113 -128q-22 -25 -31.5 -30.5t-33.5 -5.5h-43q-10 0 -16 0.5t-11.5 6t-3.5 15.5q1 9 14 20l199 195l-112 180q-8 11 -6 19q4 22 39 22h44q19 0 28.5 -3.5t18.5 -18.5l63 -108q106 111 111 115 q17 15 47 15h43q11 0 16.5 -0.5t11 -6t3.5 -15.5q-2 -9 -15 -21l-183 -178l121 -194q8 -14 7 -21z" />
<glyph unicode="y" horiz-adv-x="500" d="M565 431q-1 -6 -10 -20l-263 -474q-8 -15 -22.5 -33.5t-41 -45.5t-66 -45t-82.5 -18q-68 0 -76 14q-1 3 3 38.5t6 42.5q3 15 16 15q4 0 9 -4q27 -21 62 -21q25 0 46 14t31 27.5t23 36.5q7 14 23 42l-101 416q-2 11 -1 16q5 26 44 26h26q36 0 46.5 -13.5t22.5 -64.5 q44 -191 38 -238h1q12 42 77 161.5t74 131.5q20 23 58 23h22q7 0 12 -0.5t12 -2.5t10 -8.5t1 -15.5z" />
<glyph unicode="z" horiz-adv-x="476" d="M449 37q-8 -37 -56 -37h-314q-7 0 -11.5 0.5t-12.5 2.5t-10 6l-6 13q-4 8 1 20q3 18 19 34l310 309h-37l-146 -2q-19 0 -28.5 1t-18 10t-4.5 26q8 38 56 38h296q7 0 11.5 -0.5t12.5 -2.5t10 -6l6 -13q4 -8 -1 -20q-3 -18 -19 -34l-309 -309h46l153 2q20 0 29.5 -1.5 t18 -10t4.5 -26.5z" />
<glyph unicode="{" horiz-adv-x="575" d="M447 -232q-3 -12 -9.5 -15t-25.5 -3q-26 0 -50 2t-57.5 10.5t-56 22.5t-35.5 41t-5 63l45 210q8 37 8 47q-1 32 -28.5 57.5t-88.5 28.5q-17 2 -13 18q2 8 6 12t7.5 4.5t12.5 1.5q62 3 107 37q27 20 36 39.5t21 72.5l43 206q14 58 84 92.5t176 34.5q10 0 14.5 -0.5t8.5 -2 t5 -5t0 -10.5q-2 -8 -6 -12t-7.5 -4.5t-12.5 -1.5q-55 -3 -98 -28q-47 -30 -56 -80l-45 -210q-4 -18 -7 -29.5t-13.5 -31.5t-25 -33.5t-41.5 -28t-63 -23.5q56 -16 78.5 -48t15.5 -68l-50 -237q-5 -22 -4 -35q8 -69 117 -76q16 -1 13 -18z" />
<glyph unicode="|" horiz-adv-x="319" d="M146 -206q-9 -44 -40 -44q-30 0 -21 44l194 912q9 44 40 44q30 0 21 -44z" />
<glyph unicode="}" horiz-adv-x="575" d="M549 250q-1 -8 -5 -12t-7.5 -4.5t-13.5 -1.5q-66 -4 -104 -36q-29 -22 -38.5 -41.5t-19.5 -71.5l-44 -206q-13 -56 -82 -91.5t-179 -35.5q-13 0 -18 0.5t-8 4.5t-1 13q1 8 5 12t7.5 4.5t13.5 1.5q55 3 101 30q45 30 53 78l45 210q5 25 10.5 39t20.5 37.5t44.5 41 t74.5 28.5q-57 17 -79 48.5t-15 67.5l50 237q5 21 5 35q-7 70 -118 76q-17 1 -13 18q2 12 9 15t25 3q38 0 71.5 -5t70.5 -18t54.5 -43t8.5 -73l-45 -210q-8 -40 -7 -49q4 -40 34.5 -61t80.5 -23q17 -1 13 -18z" />
<glyph unicode="~" horiz-adv-x="556" d="M617 290l-64 -44q-24 -17 -64 -35q-43 -18 -77 -18q-41 0 -93 34q-55 37 -96 37q-68 0 -168 -71l-10 17l63 44q24 17 64 35q45 18 77 18q43 0 93 -34q21 -14 31 -19.5t28 -11.5t37 -6q69 0 168 71z" />
<glyph unicode="&#xa2;" horiz-adv-x="489" d="M468 50q-1 -7 -6 -11t-29 -15q-53 -25 -116 -33l-14 -67q-2 -10 -10.5 -17t-18.5 -7h-52q-10 0 -15.5 7t-3.5 17l15 69q-177 26 -132 237q45 212 233 241l14 63q1 10 10 17t19 7h52q22 0 19 -24l-13 -60q48 -4 101 -31q9 -5 12.5 -7.5t6 -6t1.5 -7.5t-12.5 -33.5 t-14.5 -35.5q-6 -13 -16 -13q-6 0 -15 11q-39 38 -80 44l-69 -324q59 10 115 52q12 10 18 10q10 0 10 -13q-3 -36 -9 -70zM236 82l64 300q-23 -13 -39.5 -39.5t-23.5 -50t-15 -60.5q-7 -36 -10 -56t1.5 -50t22.5 -44z" />
<glyph unicode="&#xa3;" horiz-adv-x="733" d="M693 153q-16 -73 -79 -124t-137 -51q-48 0 -103 15q-46 11 -71 16t-61 4.5t-52 -14.5q-24 -21 -54 -21q-28 0 -43.5 20t-9.5 48q6 27 29 47q86 74 135 180l11 24h-86q-15 0 -23 10.5t-5 25.5l6 28q3 15 15.5 25.5t27.5 10.5h97l19 67q27 95 92.5 162.5t144.5 67.5 q85 0 120.5 -75.5t14.5 -178.5q-6 -28 -30.5 -48t-52.5 -20t-43.5 20t-9.5 48q12 42 8 80t-36 38q-16 0 -28 -8.5t-21.5 -27t-13.5 -31.5l-13 -38l-15 -56h62q15 0 23.5 -10.5t5.5 -25.5l-6 -28q-3 -15 -16 -25.5t-28 -10.5h-71q-12 -33 -24 -58q-25 -51 -52 -92 q45 -6 113 -22q42 -11 73 -11q17 0 32 11.5t19 27.5q5 28 29.5 48t52.5 20t43.5 -20t10.5 -48z" />
<glyph unicode="&#xa5;" horiz-adv-x="733" d="M851 671q-3 -10 -14 -21l-239 -262h59q15 0 23.5 -11t5.5 -25l-6 -28q-3 -15 -16 -25.5t-28 -10.5h-129l-10 -11l-11 -52h137q15 0 23 -10.5t5 -25.5l-6 -28q-3 -15 -15.5 -25.5t-27.5 -10.5h-137l-17 -78q-6 -27 -18.5 -37t-39.5 -10h-48q-27 0 -35 10.5t-3 37.5l17 77 h-136q-15 0 -23.5 10.5t-5.5 25.5l6 28q3 15 16 25.5t28 10.5h136l11 53l-5 10h-129q-15 0 -23 10.5t-5 25.5l6 28q3 14 15.5 25t27.5 11h59l-128 263q-6 12 -4 20q5 23 41 23h66q28 0 44 -8.5t28 -32.5l78 -162q27 -55 37 -88q24 35 95 113l127 140q36 38 88 38h49 q10 0 16 -0.5t11.5 -6t3.5 -16.5z" />
<glyph unicode="&#xa9;" horiz-adv-x="694" d="M768 347q-31 -144 -154 -245.5t-267 -101.5t-224 101.5t-49 245.5t154 245.5t267 101.5t224 -101.5t49 -245.5zM694 347q24 113 -39 193t-176 80t-210 -80t-121 -193t39 -193t176 -80t210 80t121 193zM519 194q-1 -5 -3 -6.5t-14 -7.5q-49 -23 -103 -23q-190 0 -149 190 q39 190 230 190q50 0 88 -14q10 -4 12 -5.5t1 -4.5q0 -1 -1 -3t-1 -4l-18 -45q-3 -9 -9 -9q-3 0 -6 4q-30 30 -78 30q-114 0 -142 -139q-30 -138 85 -138q52 0 98 28q8 6 12 6q6 0 4 -9q-5 -38 -6 -40z" />
<glyph unicode="&#xad;" horiz-adv-x="367" d="M354 229q-8 -36 -56 -36h-197q-11 0 -18.5 1t-16.5 10t-5 25q7 36 55 36h197q48 0 41 -36z" />
<glyph unicode="&#xae;" horiz-adv-x="694" d="M768 347q-31 -144 -154 -245.5t-267 -101.5t-224 101.5t-49 245.5t154 245.5t267 101.5t224 -101.5t49 -245.5zM694 347q24 113 -39 193t-176 80t-210 -80t-121 -193t39 -193t176 -80t210 80t121 193zM546 184q-3 -16 -22 -16h-30q-17 0 -23 13l-52 148h-57l-29 -136 q-3 -14 -9.5 -19.5t-20.5 -5.5h-25q-14 0 -18.5 5.5t-1.5 19.5l65 308q7 25 31 25h124q13 0 23.5 -0.5t32 -6t34.5 -15t21 -30.5t2 -49q-15 -72 -101 -92zM519 424q6 29 -5.5 43.5t-52.5 14.5h-67l-24 -116h67q43 0 60 15.5t22 42.5z" />
<glyph unicode="&#xb4;" d="M576 681q-2 -5 -14 -15l-187 -129h-37q-10 0 -14.5 0.5t-7.5 3.5t-2 9l12 15l111 117q8 8 13 10t20 2h82q10 0 14.5 -0.5t7.5 -3.5t2 -9z" />
<glyph unicode="&#x2000;" horiz-adv-x="375" />
<glyph unicode="&#x2001;" horiz-adv-x="750" />
<glyph unicode="&#x2002;" horiz-adv-x="375" />
<glyph unicode="&#x2003;" horiz-adv-x="750" />
<glyph unicode="&#x2004;" horiz-adv-x="250" />
<glyph unicode="&#x2005;" horiz-adv-x="187" />
<glyph unicode="&#x2006;" horiz-adv-x="125" />
<glyph unicode="&#x2007;" horiz-adv-x="125" />
<glyph unicode="&#x2008;" horiz-adv-x="93" />
<glyph unicode="&#x2009;" horiz-adv-x="150" />
<glyph unicode="&#x200a;" horiz-adv-x="41" />
<glyph unicode="&#x2010;" horiz-adv-x="367" d="M354 229q-8 -36 -56 -36h-197q-11 0 -18.5 1t-16.5 10t-5 25q7 36 55 36h197q48 0 41 -36z" />
<glyph unicode="&#x2011;" horiz-adv-x="367" d="M354 229q-8 -36 -56 -36h-197q-11 0 -18.5 1t-16.5 10t-5 25q7 36 55 36h197q48 0 41 -36z" />
<glyph unicode="&#x2013;" d="M609 283q-7 -36 -55 -36h-453q-48 0 -41 36q8 36 56 36h453q11 0 18.5 -1t16.5 -10t5 -25z" />
<glyph unicode="&#x2014;" horiz-adv-x="1100" d="M1159 283q-7 -36 -55 -36h-1003q-48 0 -41 36q8 36 56 36h1003q11 0 18.5 -1t16.5 -10t5 -25z" />
<glyph unicode="&#x2018;" horiz-adv-x="306" d="M321 484q-5 -20 -9.5 -23.5t-23.5 -3.5h-77q-20 0 -22.5 3.5t1.5 23.5l20 95l85 102q8 9 12.5 11t19.5 2h12q23 0 24 -9q0 -1 -1 -4q-2 -6 -6 -13l-47 -80q25 0 29 -4t-1 -23z" />
<glyph unicode="&#x2019;" horiz-adv-x="306" d="M340 572l-85 -102q-8 -9 -12.5 -11t-19.5 -2h-12q-23 0 -24 9q0 1 1 4q2 6 6 13l47 80q-25 0 -29 3.5t0 23.5l17 77q4 19 8.5 23t24.5 4h77q19 0 22 -4t-1 -23z" />
<glyph unicode="&#x201c;" horiz-adv-x="529" d="M544 484q-5 -20 -9.5 -23.5t-23.5 -3.5h-77q-20 0 -22.5 3.5t1.5 23.5l20 95l85 102q8 9 12.5 11t19.5 2h12q23 0 24 -9q0 -1 -1 -4q-2 -6 -6 -13l-47 -80q25 0 29 -4t-1 -23zM321 484q-5 -20 -9.5 -23.5t-23.5 -3.5h-77q-20 0 -22.5 3.5t1.5 23.5l20 95l85 102 q8 9 12.5 11t19.5 2h12q23 0 24 -9q0 -1 -1 -4q-2 -6 -6 -13l-47 -80q25 0 29 -4t-1 -23z" />
<glyph unicode="&#x201d;" horiz-adv-x="529" d="M564 572l-85 -102q-8 -9 -12.5 -11t-19.5 -2h-12q-23 0 -24 9q0 1 1 4q2 6 6 13l47 80q-25 0 -29 3.5t0 23.5l17 77q4 19 8.5 23t24.5 4h77q19 0 22 -4t-1 -23zM341 572l-85 -102q-8 -9 -12.5 -11t-19.5 -2h-12q-23 0 -24 9q0 1 1 4q2 6 6 13l47 80q-25 0 -29 3.5t0 23.5 l17 77q4 19 8.5 23t24.5 4h77q19 0 22 -4t-1 -23z" />
<glyph unicode="&#x2022;" horiz-adv-x="856" d="M618 177q-10 -46 -20.5 -54.5t-56.5 -8.5h-178q-46 0 -52.5 8.5t3.5 54.5l37 178q10 46 20.5 54.5t56.5 8.5h178q46 0 52.5 -8.5t-3.5 -54.5z" />
<glyph unicode="&#x2026;" horiz-adv-x="768" d="M687 27q-5 -20 -9.5 -23.5t-23.5 -3.5h-77q-20 0 -22.5 4t1.5 23l16 77q5 20 9.5 23.5t23.5 3.5h77q20 0 22.5 -3.5t-1.5 -23.5zM456 27q-5 -20 -9.5 -23.5t-23.5 -3.5h-77q-20 0 -22.5 4t1.5 23l16 77q5 20 9.5 23.5t23.5 3.5h77q20 0 22.5 -3.5t-1.5 -23.5zM225 27 q-5 -20 -9.5 -23.5t-23.5 -3.5h-77q-20 0 -22.5 4t1.5 23l16 77q5 20 9.5 23.5t23.5 3.5h77q20 0 22.5 -3.5t-1.5 -23.5z" />
<glyph unicode="&#x202f;" horiz-adv-x="150" />
<glyph unicode="&#x205f;" horiz-adv-x="187" />
<glyph unicode="&#x20ac;" horiz-adv-x="658" d="M613 48q0 -6 -7 -11q-82 -59 -175 -59q-157 0 -215 94q-38 58 -36 150h-64q-6 0 -9 5t-1 10l24 60q3 11 15 11h43l8 39l9 39h-54q-6 0 -9 5t-1 10l24 60q3 11 15 11h53q36 90 100 151q99 93 255 93q79 0 141 -35q7 -6 4 -14l-42 -107q-4 -9 -12.5 -10.5t-12.5 5.5 q-12 28 -38.5 44.5t-60.5 16.5q-84 0 -137 -64q-30 -36 -49 -80h247q6 0 9 -4.5t1 -10.5l-23 -60q-5 -11 -15 -11h-247l-9 -39l-8 -39h229q6 0 8.5 -4.5t0.5 -10.5l-23 -60q-5 -11 -15 -11h-208q0 -43 15 -79q28 -65 110 -65t150 63q7 7 14.5 4t6.5 -11z" />
<glyph unicode="&#x2122;" horiz-adv-x="1027" d="M555 661q-3 -14 -9 -20.5t-11.5 -7.5t-16.5 -1l-119 2l-69 -324q-4 -16 -11 -22t-24 -6h-30q-17 0 -22 6t-1 22l69 324l-122 -2q-11 0 -16 1t-8.5 7.5t-0.5 20.5l2 5q3 16 10.5 22t24.5 6h333q18 0 22 -6.5t1 -21.5zM1013 310q-4 -16 -11 -22t-24 -6h-16q-18 0 -22 6.5 t-1 21.5l66 311h-1q-13 -29 -66 -112l-117 -188q-11 -18 -21.5 -22t-29.5 -4q-13 0 -18.5 1t-12 7t-9.5 18l-33 171q-20 100 -21 129l-66 -311q-4 -16 -11 -22t-24 -6h-16q-17 0 -22 6t-1 22l76 359q4 17 11.5 23t23.5 6h49q30 0 36 -25l36 -189q19 -101 19 -113h1 q6 15 62 107l120 194q17 26 46 26h50q18 0 22 -6.5t1 -22.5z" />
</font>
</defs>
</svg>
