<?xml version="1.0" standalone="no"?>
<!DOCTYPE svg PUBLIC "-//W3C//DTD SVG 1.1//EN" "http://www.w3.org/Graphics/SVG/1.1/DTD/svg11.dtd" >
<svg xmlns="http://www.w3.org/2000/svg">
<metadata>
This is a custom SVG webfont generated by Font Squirrel.
</metadata>
<defs>
<font id="webfont8srtUNcw" horiz-adv-x="475" >
<font-face units-per-em="1000" ascent="833" descent="-167" />
<missing-glyph horiz-adv-x="317" />
<glyph unicode=" "  horiz-adv-x="317" />
<glyph unicode="&#x09;" horiz-adv-x="317" />
<glyph unicode="&#xa0;" horiz-adv-x="317" />
<glyph unicode="!" horiz-adv-x="306" d="M349 671l-57 -242l-55 -236q-4 -10 -28 -10h-34q-21 0 -23 7q-1 2 35 191l56 290q4 17 8.5 20t22.5 3h55q18 0 20.5 -3t-0.5 -20zM215 44q-5 -26 -16 -35t-37 -9h-17q-27 0 -34 9.5t-1 35.5l3 17q5 26 16.5 35t37.5 9h18q27 0 33.5 -9.5t0.5 -34.5z" />
<glyph unicode="&#x22;" horiz-adv-x="488" d="M511 465q-3 -15 -16.5 -26t-28.5 -11h-38q-15 0 -23.5 11t-5.5 26l45 211q3 15 16.5 26t28.5 11h38q15 0 23.5 -10.5t5.5 -26.5zM287 465q-3 -15 -16.5 -26t-28.5 -11h-38q-15 0 -23.5 11t-5.5 26l45 211q3 15 16.5 26t28.5 11h38q15 0 23.5 -10.5t5.5 -26.5z" />
<glyph unicode="#" horiz-adv-x="792" d="M770 150q-8 -35 -59 -35h-192l-117 -253q-15 -29 -41 -29q-15 0 -23 10.5t-5 24.5q1 5 8 20l106 227h-131l-117 -253q-15 -29 -41 -29q-15 0 -23 10.5t-5 24.5q1 5 8 20l106 227h-116q-12 0 -20 1t-17.5 9.5t-5.5 24.5q7 35 52 35h140l74 158h-180q-10 0 -17.5 1 t-15.5 9.5t-5 24.5q8 35 59 35h193l114 247q15 34 44 34q15 0 22.5 -10.5t4.5 -24.5q-1 -7 -8 -20l-105 -226h131l114 247q15 34 44 34q15 0 22.5 -10.5t4.5 -24.5q-1 -7 -8 -20l-105 -226h115q12 0 20 -1t17.5 -9.5t5.5 -24.5q-7 -35 -52 -35h-139l-74 -158h179 q10 0 17.5 -1t15.5 -9.5t5 -24.5zM554 343h-130l-74 -158h130z" />
<glyph unicode="$" d="M464 202q-40 -185 -197 -210q-3 -14 -5.5 -21.5t-12 -17t-24.5 -9.5q-21 0 -24 17.5t2 30.5q-55 6 -94 30q-55 33 -52 50q1 3 11 28l13 31q0 3 3.5 7.5t9.5 4.5q5 0 13 -8q47 -47 115 -57l48 228q-63 14 -94.5 68.5t-14.5 131.5q16 76 63 130t130 66q11 48 42 48 q33 0 22 -47q44 -5 79 -25q46 -28 43 -43q-1 -4 -11 -29.5t-13 -29.5q0 -3 -3.5 -7.5t-9.5 -4.5q-5 0 -12 8q-39 37 -91 44l-43 -201q67 -15 95.5 -74.5t11.5 -138.5zM297 434l38 179q-57 -16 -72 -89q-11 -67 34 -90zM361 183q15 78 -31 104l-44 -205q57 19 75 101z" />
<glyph unicode="%" horiz-adv-x="879" d="M476 548q-3 -15 -7.5 -32.5t-19.5 -50t-34.5 -56.5t-54.5 -43t-78 -19q-40 0 -66.5 15.5t-37.5 37.5t-14.5 52t-1 52t7.5 45q18 92 69 145q53 56 128 56q36 0 61 -12.5t36 -34t17 -43.5t4 -47.5t-4 -39t-5 -25.5zM860 715q-2 -10 -16 -26l-610 -723q-18 -22 -38 -22 q-14 0 -22.5 10.5t-4.5 24.5q2 12 15 26l611 723q20 22 37 22q15 0 23 -10.5t5 -24.5zM856 145l-8 -33q-4 -15 -19.5 -49t-35 -57.5t-54.5 -42.5t-78 -19q-40 0 -66.5 15.5t-37.5 37.5t-14.5 52t-1 52t7.5 45q18 91 69 145q54 56 129 56q43 0 70 -19t36.5 -42.5t10 -58 t-1.5 -49.5t-6 -33zM382 549q14 59 8 89.5t-14.5 39t-21.5 8.5q-19 0 -33.5 -12.5t-25 -39t-14.5 -41t-11 -45.5q-5 -25 -6.5 -35t-4 -34t0 -35.5t11.5 -22t24 -10.5q57 0 87 138zM761 146q15 59 8.5 89.5t-15 39t-21.5 8.5q-19 0 -33.5 -13t-24.5 -38t-14.5 -42t-10.5 -45 q-5 -21 -7 -34.5t-4 -35t0.5 -34.5t11.5 -23t24 -10q57 0 86 138z" />
<glyph unicode="&#x26;" horiz-adv-x="717" d="M668 25q-4 -18 -10 -23t-37 -12q-35 -9 -71 -9q-84 0 -144 56q-104 -56 -197 -56q-74 0 -113.5 48.5t-24.5 114.5q9 40 32 70.5t45 47.5l102 75q-20 96 0 195q17 81 75.5 131t122.5 50q63 0 92 -48t16 -108q-9 -46 -57 -95t-141 -118q25 -82 87 -185q111 95 189 263 q7 17 10.5 21.5t10.5 4.5q2 0 28 -7.5t30 -8.5q9 -6 8 -13q-3 -10 -31 -64.5t-69 -111.5q-55 -77 -128 -143q35 -33 78 -33q39 0 86 14q9 4 13 4q11 0 6 -26zM461 557q8 21 3 56.5t-30 35.5q-26 0 -50 -27.5t-34 -70.5q-14 -64 -5 -144q51 41 79.5 75t36.5 75zM354 98 q-53 76 -89 178q-22 -15 -34 -25.5t-25 -32t-19 -50.5q-2 -9 -3 -20.5t-0.5 -32.5t12.5 -34.5t34 -13.5q61 0 124 31z" />
<glyph unicode="'" horiz-adv-x="264" d="M287 465q-3 -15 -16.5 -26t-28.5 -11h-38q-15 0 -23.5 11t-5.5 26l45 211q3 15 16.5 26t28.5 11h38q15 0 23.5 -10.5t5.5 -26.5z" />
<glyph unicode="(" horiz-adv-x="369" d="M269 -211q-2 -11 -26 -11h-14q-18 0 -20 2q-11 11 -21 22.5t-32.5 55t-34.5 93t-12.5 134t19.5 179.5q54 256 205 412q27 29 53.5 50.5t31.5 22.5q0 1 17 1h14q14 0 18.5 -1.5t3.5 -9.5q-2 -6 -14 -17q-154 -158 -218 -458q-21 -100 -26.5 -180t4 -134.5t20.5 -85.5 t29 -62q4 -9 3 -13z" />
<glyph unicode=")" horiz-adv-x="369" d="M352 264q-54 -255 -204 -412q-28 -29 -54.5 -50.5t-31.5 -22.5q0 -1 -17 -1h-13q-9 0 -13.5 0.5t-7.5 3t-2 7.5q2 6 14 17q75 78 129 185t89 273q21 100 26.5 180.5t-4 134.5t-20.5 84.5t-29 62.5q-4 9 -3 13q2 11 27 11h13q18 0 20 -2q11 -11 21 -22.5t32.5 -55 t34.5 -93t12.5 -134t-19.5 -179.5z" />
<glyph unicode="*" d="M507 422q-4 -17 -20.5 -31.5t-33.5 -14.5q-14 0 -25 14l-73 92q-3 -142 -9 -167q-4 -18 -19.5 -27.5t-30.5 -9.5t-26.5 9.5t-7.5 27.5q2 9 8 23l53 144l-112 -92q-17 -14 -30 -14q-18 0 -28 14t-6 32q5 23 32 35l140 57l-116 57q-22 12 -17 35q4 17 20.5 31.5t33.5 14.5 q14 0 25 -14l72 -92l8 144q0 15 2 23q3 18 18.5 27.5t30.5 9.5t26.5 -9.5t8.5 -27.5q0 -1 -8 -23l-54 -144l113 92q17 14 30 14q18 0 28 -14t6 -32q-5 -22 -33 -35l-140 -57l116 -57q23 -13 18 -35z" />
<glyph unicode="+" horiz-adv-x="739" d="M741 264q-7 -35 -54 -35h-234l-50 -235q-12 -47 -45 -47q-37 0 -25 47l50 235h-234q-47 0 -40 35q8 35 55 35h234l50 235q8 47 44 47q34 0 26 -47l-50 -235h234q11 0 18.5 -1t16 -9.5t4.5 -24.5z" />
<glyph unicode="," horiz-adv-x="264" d="M191 26q-5 -19 -16 -35q-57 -82 -60 -86q-8 -11 -12.5 -13.5t-20.5 -2.5q-24 0 -25 7q0 2 1 5q2 12 49 99q-20 0 -23 3.5t1 22.5l11 54q4 19 8.5 22.5t22.5 3.5h56q18 0 20.5 -3t-1.5 -23z" />
<glyph unicode="-" horiz-adv-x="317" d="M313 236q-7 -32 -51 -32h-164q-11 0 -18 1t-14.5 8.5t-4.5 22.5q7 32 51 32h164q11 0 18 -1t14.5 -8.5t4.5 -22.5z" />
<glyph unicode="." horiz-adv-x="264" d="M191 26q-4 -19 -8.5 -22.5t-22.5 -3.5h-55q-19 0 -21.5 3.5t1.5 22.5l11 54q4 19 8.5 22.5t22.5 3.5h56q18 0 20.5 -3t-1.5 -23z" />
<glyph unicode="/" d="M573 715q-3 -8 -9 -19l-482 -889q-17 -29 -41 -29q-15 0 -23 10.5t-5 24.5q3 8 9 19l482 889q17 29 41 29q15 0 23 -10.5t5 -24.5z" />
<glyph unicode="0" d="M510 343l-13 -59q-5 -23 -18 -65.5t-26 -70.5t-35 -62.5t-47 -55t-61 -35t-77 -14.5t-70.5 14.5t-46 35t-24 55.5t-8.5 62t4.5 70t9.5 65t12 60q8 37 13.5 60t18.5 66.5t26 72t35.5 64t47.5 56.5t61 36t77 15t70.5 -15t45.5 -36t23 -57t8.5 -64t-4.5 -72t-10 -66t-12 -60 zM402 357q8 37 12 57t10 53t7.5 51t2.5 42.5t-2.5 37.5t-10 26.5t-18.5 19t-28 5.5q-24 0 -44 -13.5t-33 -36t-19 -36.5t-11 -28q-16 -48 -44 -178l-11 -53q-4 -19 -10 -50.5t-8 -49t-4.5 -43t-1 -39.5t4.5 -31t10 -25.5t17.5 -14.5t25.5 -6q19 0 35 10t28.5 23t24.5 40.5 t19.5 47.5t17.5 60t15 62z" />
<glyph unicode="1" d="M415 32q-7 -32 -51 -32h-240q-11 0 -18 1t-15 8.5t-5 22.5q7 32 52 32h67l112 531q-45 -15 -86 -15q-9 0 -16 1t-14 8.5t-4 22.5q2 11 12.5 21t29.5 11q88 4 139 52q17 17 39 17q18 0 25 -8.5t6.5 -15.5t-3.5 -20l-128 -605h61q11 0 18 -1t14.5 -8.5t4.5 -22.5z" />
<glyph unicode="2" d="M436 44q-5 -26 -16 -35t-37 -9h-291q-27 0 -34 9.5t-1 35.5q3 19 15 30l217 215q108 108 127 199q2 11 3.5 21.5t0.5 33.5t-7.5 39.5t-24 30t-45.5 13.5q-48 0 -79 -33t-55 -88q0 -1 -1 -2q-8 -17 -17 -17q-6 0 -13 12q-22 46 -21 52q2 5 9.5 20t27.5 42.5t42 47.5 q61 52 140 52q93 0 134 -65t21 -158q-15 -68 -61 -121t-177 -167l-120 -110q7 1 20 1h122l62 1q45 0 56 -6.5t5 -37.5z" />
<glyph unicode="3" d="M477 200q-24 -109 -92.5 -164t-160.5 -55q-43 0 -78 14.5t-52.5 34.5t-26.5 36t-8 23q0 1 6.5 18t7.5 20q6 17 9.5 22t10.5 5q6 0 12 -14q16 -33 45 -52t49 -23t38 -4q89 0 118 141q16 71 1.5 106t-66.5 35h-34q-18 0 -21 3.5t1 22.5l3 12q4 21 11 24q4 2 29 4 q22 2 32.5 4t25.5 11t29 26q31 39 43 98q4 18 5 31t-1.5 28t-15.5 23t-36 8q-11 0 -23.5 -2.5t-33 -10t-42.5 -26t-40 -46.5q-9 -12 -15 -12q-7 0 -17 25.5t-9 29.5q1 6 15 23.5t38 39t64 38t83 16.5q86 0 123 -44.5t20 -120.5q-12 -59 -50.5 -102.5t-85.5 -69.5 q117 -38 89 -176z" />
<glyph unicode="4" d="M492 206q-4 -19 -14 -28t-17.5 -10.5t-21.5 -1.5h-36l-26 -122q-5 -26 -16 -35t-37 -9h-17q-27 0 -33.5 9.5t-1.5 34.5l26 122h-193q-27 0 -33.5 9.5t-0.5 34.5l3 18q4 18 14 33l284 409q11 16 20 20t28 4h52q26 0 32.5 -9t1.5 -35l-85 -403h36q11 0 16 -0.5t13 -4.5 t7.5 -12.5t-1.5 -23.5zM322 247l75 357q-3 -12 -49 -87l-70 -107l-72 -106l-39 -57h155z" />
<glyph unicode="5" d="M474 220q-26 -116 -95 -178q-71 -61 -172 -61q-43 0 -76 16t-48.5 37.5t-23 38.5t-6.5 23l22 32q22 31 30 31q9 0 9 -9q6 -31 22 -51t36 -27t30 -9t19 -2q28 0 49.5 11.5t34 25.5t23 40.5t14.5 41.5t10 43q6 26 9 42t5 41.5t-0.5 40t-12.5 26t-28 11.5q-54 0 -103 -60 q-10 -13 -18.5 -16.5t-24.5 -3.5q-28 0 -34.5 14t0.5 32l64 298q5 27 16.5 36.5t38.5 9.5h235q25 0 32.5 -8.5t1.5 -34.5q-5 -26 -16.5 -34.5t-36.5 -8.5h-175l-37 -175q34 15 72 15q45 0 77.5 -18t47.5 -46q30 -61 9 -164z" />
<glyph unicode="6" d="M484 233q-14 -64 -32 -104t-59 -82q-65 -66 -157 -66q-201 0 -124 358q38 175 113 266q46 55 103.5 81.5t112.5 26.5q32 0 53 -10q21 -9 24.5 -15t-0.5 -22l-6 -24q-5 -26 -16 -26l-15 7q-19 15 -53 15q-36 0 -66.5 -18.5t-49 -42.5t-35 -63t-23.5 -63.5t-16 -59.5 q50 83 129 83q87 0 117 -79q22 -58 0 -162zM369 233l7 36q3 12 6 34.5t3 34.5t-2.5 28t-8.5 24t-17 14t-27 6q-86 0 -120 -159q-41 -190 42 -190q23 0 41.5 11t29.5 25.5t21 41.5t14 45z" />
<glyph unicode="7" d="M572 651q-5 -22 -16 -33q-237 -274 -308 -596q-7 -32 -51 -32h-29q-29 0 -35.5 13t1.5 33q64 306 321 566q-7 -1 -23 -1h-129l-63 -1q-48 0 -58.5 6.5t-4.5 37.5l1 7q7 32 21 38t66 6h36l233 -1q10 0 14.5 -0.5t11 -2t8.5 -4t4.5 -7t2 -12t-2.5 -17.5z" />
<glyph unicode="8" d="M476 199q-22 -105 -86 -161.5t-157 -56.5q-92 0 -133 56t-18 162q30 138 154 176q-96 33 -72 149q19 88 77 138.5t148 50.5q89 0 125.5 -50t17.5 -139q-24 -116 -134 -149q107 -38 78 -176zM429 523q4 20 6 31.5t2 29.5t-6 28t-20.5 18t-37.5 8t-41 -8t-28 -17.5 t-18.5 -28t-11.5 -29.5l-7 -32q-5 -24 -6.5 -39t1 -35.5t18 -31t44.5 -10.5q23 0 41 8.5t28 18.5t18 29t11 29.5t7 30.5zM363 201q5 23 7.5 37t3 36.5t-5 35.5t-20 23t-38.5 10q-29 0 -50 -13t-33.5 -39t-18 -43t-11.5 -47q-5 -24 -7.5 -38t-3 -36t5 -34.5t20 -22t38.5 -9.5 t42.5 10t29 21.5t20 34.5t12.5 36z" />
<glyph unicode="9" d="M510 357q-38 -182 -121 -280q-37 -43 -89 -69.5t-107 -26.5q-56 0 -86.5 24.5t-27.5 35.5l23 31q22 30 29 30q5 0 10 -6q23 -35 68 -35q33 0 66 22t55 65q17 32 26.5 60t26.5 95q-54 -83 -128 -83q-89 0 -118 84q-21 55 1 158q8 39 15 62t26 57.5t48 63.5q68 68 164 68 q195 0 119 -356zM412 441q41 197 -36 197q-24 0 -43.5 -11.5t-31.5 -26.5t-22 -43t-14.5 -46t-11.5 -50q-5 -25 -7.5 -36t-5.5 -34t-3 -34.5t2 -28t8 -24.5t17 -14t27 -6q30 0 54 20.5t38 53t19.5 49.5t9.5 34z" />
<glyph unicode=":" horiz-adv-x="264" d="M191 26q-4 -19 -8.5 -22.5t-22.5 -3.5h-55q-19 0 -21.5 3.5t1.5 22.5l11 54q4 19 8.5 22.5t22.5 3.5h56q18 0 20.5 -3t-1.5 -23zM268 392q-4 -19 -8 -22.5t-22 -3.5h-56q-18 0 -21 3t1 23l12 54q4 19 8 22.5t23 3.5h55q18 0 21 -3t-1 -23z" />
<glyph unicode=";" horiz-adv-x="264" d="M191 26q-5 -19 -16 -35q-57 -82 -60 -86q-8 -11 -12.5 -13.5t-20.5 -2.5q-24 0 -25 7q0 2 1 5q2 12 49 99q-20 0 -23 3.5t1 22.5l11 54q4 19 8.5 22.5t22.5 3.5h56q18 0 20.5 -3t-1.5 -23zM268 392q-4 -19 -8 -22.5t-22 -3.5h-56q-18 0 -21 3t1 23l12 54q4 19 8 22.5 t23 3.5h55q18 0 21 -3t-1 -23z" />
<glyph unicode="&#x3c;" horiz-adv-x="778" d="M690 -20q-2 -8 -9.5 -14t-15.5 -6q-5 0 -16 7l-499 261q-16 9 -14 22q3 13 24 22l609 261q15 7 20 7q8 0 13 -6t3 -14q-3 -12 -24 -22l-578 -248l472 -248q17 -9 15 -22z" />
<glyph unicode="=" horiz-adv-x="739" d="M765 378q-7 -35 -52 -35h-542q-10 0 -17.5 1t-15.5 9.5t-5 24.5q8 35 59 35h530q12 0 20 -1t17.5 -9.5t5.5 -24.5zM717 150q-8 -35 -59 -35h-530q-12 0 -20 1t-17.5 9.5t-5.5 24.5q7 35 52 35h542q10 0 17.5 -1t15.5 -9.5t5 -24.5z" />
<glyph unicode="&#x3e;" horiz-adv-x="778" d="M747 250q-2 -14 -24 -22l-609 -261q-15 -7 -20 -7q-8 0 -12.5 6t-2.5 14q3 13 23 22l578 248l-472 248q-17 9 -14 22q4 20 24 20q5 0 16 -7l499 -261q17 -9 14 -22z" />
<glyph unicode="?" horiz-adv-x="449" d="M512 552q-15 -74 -70 -114q-111 -79 -136 -194l-7 -34q-4 -20 -8.5 -23.5t-23.5 -3.5h-34q-18 0 -21 3.5t1 20.5l9 43q25 115 139 227q13 13 18 19.5t11.5 21.5t11.5 39q12 40 1.5 61.5t-55.5 21.5q-68 0 -126 -53q-10 -10 -15 -10t-7 4t-6 25q-4 24 -4 36q4 13 58 37.5 t117 24.5q179 0 147 -152zM273 44q-5 -26 -16 -35t-37 -9h-17q-27 0 -34 9.5t-1 35.5l3 17q5 26 16.5 35t37.5 9h18q27 0 33.5 -9.5t0.5 -34.5z" />
<glyph unicode="@" horiz-adv-x="633" d="M658 367q-8 -39 -13.5 -59t-21.5 -54t-40 -61q-62 -73 -161 -73q-92 0 -128 69q-31 60 -7 158q4 20 9 37.5t23 55.5t41 64.5t65 48t94 21.5q35 0 58 -9q-2 33 -22 54t-53 21q-112 0 -192 -98q-55 -68 -82 -195q-4 -19 -6.5 -32t-5 -46.5t-0.5 -58t11.5 -56t27 -51.5 t50 -34.5t76.5 -14.5q78 0 152 44h43q14 0 18.5 -1.5t2.5 -9.5q-1 -5 -19 -20t-47.5 -32.5t-74.5 -31t-91 -13.5q-78 0 -137.5 29.5t-86.5 86.5q-47 92 -14 241q32 157 124 250q107 107 265 107q49 0 83 -14t51 -41.5t25 -57t5 -73t-8 -75t-14 -76.5zM553 347q9 42 10 75.5 t-13 60.5t-46 27q-10 0 -20.5 -3.5t-29.5 -17t-36.5 -50t-29.5 -92.5q-9 -41 -10.5 -75t12.5 -61t46 -27q8 0 15 1.5t22.5 10.5t28 24.5t27 48.5t24.5 78z" />
<glyph unicode="A" horiz-adv-x="636" d="M605 25q-5 -25 -43 -25h-34q-31 0 -39 11.5t-12 52.5l-11 107h-242l-69 -131q-8 -14 -13 -21t-18.5 -13t-34.5 -6h-16q-10 0 -16.5 1t-12.5 7t-4 17l8 16l324 616q20 37 65 37h57q14 0 21.5 -1t16.5 -10t10 -27l62 -617zM459 246l-16 185q-12 107 -9 157h-1 q-11 -33 -71 -149l-99 -193h196z" />
<glyph unicode="B" horiz-adv-x="635" d="M622 192q-8 -37 -26.5 -69.5t-50 -61t-81.5 -45t-113 -16.5h-225q-27 0 -34 9.5t-1 35.5l128 604q6 27 17.5 36t37.5 9h200q118 0 162.5 -51t28.5 -127q-12 -59 -57.5 -98.5t-112.5 -54.5q84 -15 112 -61.5t15 -109.5zM553 514q6 30 -3 51.5t-24 31t-38.5 15.5t-35 6.5 t-24.5 0.5h-99l-48 -226h99q77 0 119.5 34t53.5 87zM508 194q8 38 -1 65.5t-24.5 40.5t-41 20t-38.5 8t-28 1h-108l-54 -254h124q70 0 114.5 30.5t56.5 88.5z" />
<glyph unicode="C" horiz-adv-x="607" d="M570 51q-2 -6 -5.5 -9.5t-21.5 -14.5q-48 -27 -84.5 -36.5t-89.5 -9.5q-150 0 -216 93q-66 92 -26 273q34 165 128 259q106 107 268 107q77 0 146 -28q15 -7 18 -10t2 -10q-1 -3 -28 -74q-6 -14 -15 -14q-5 0 -13 7q-53 43 -128 43q-47 0 -86.5 -16.5t-66 -46 t-45.5 -58.5t-31.5 -65.5t-17.5 -54.5t-9 -39q-8 -36 -11.5 -68.5t0 -73t18 -69.5t48.5 -49t85 -20t84.5 10.5t75.5 36.5q14 9 19 9q6 0 7.5 -4.5t1.5 -7.5q-1 -4 -4 -30.5t-3 -29.5z" />
<glyph unicode="D" horiz-adv-x="688" d="M706 342q-36 -168 -134 -257q-92 -85 -227 -85h-219q-27 0 -34 9.5t-1 35.5l128 604q6 27 17.5 36t37.5 9h218q68 0 122 -27t80 -80q44 -93 12 -245zM587 342l8 42q3 15 6 47.5t0.5 54t-11.5 49t-26.5 44t-48 28.5t-72.5 12h-111l-116 -544h112q42 0 77.5 11t59.5 27 t44.5 42.5t32 47.5t22 52t14.5 46.5t9 40.5z" />
<glyph unicode="E" horiz-adv-x="567" d="M535 44q-5 -26 -16 -35t-37 -9h-356q-27 0 -34 9.5t-1 35.5l127 601q6 27 17.5 36t37.5 9h343q28 0 34.5 -12t-0.5 -33q-4 -22 -13 -32t-18 -11.5t-30 -1.5l-212 3h-46l-43 -205h240q11 0 16 -0.5t13 -4.5t7.5 -12.5t-1.5 -23.5q-4 -19 -13.5 -28t-17 -10.5t-21.5 -1.5 h-240l-48 -226q18 2 132 2l141 2q12 0 17 -0.5t13.5 -2.5t9 -6.5t3.5 -13t-2 -21.5z" />
<glyph unicode="F" horiz-adv-x="540" d="M636 646q-4 -22 -13 -32t-18 -11.5t-29 -1.5l-205 3h-40l-46 -218h213q11 0 16 -0.5t13 -4.5t7.5 -12.5t-1.5 -23.5q-4 -19 -13.5 -28t-17 -10.5t-21.5 -1.5h-213l-56 -261q-5 -26 -16 -35t-37 -9h-33q-27 0 -34 9.5t-1 35.5l127 601q6 27 17.5 36t37.5 9h329 q28 0 34.5 -12t-0.5 -33z" />
<glyph unicode="G" horiz-adv-x="633" d="M581 58q-4 -17 -8 -22t-22 -13q-92 -42 -186 -42q-158 0 -219 104q-56 94 -19 262q37 175 141 272q102 94 254 94q92 0 156 -39q17 -11 19.5 -14t1.5 -9q-1 -3 -28 -74q-6 -14 -15 -14q-5 0 -12 6q-55 58 -139 58q-56 0 -101.5 -25.5t-71 -57.5t-45.5 -78t-26.5 -69.5 t-11.5 -49.5q-4 -17 -6.5 -31.5t-5.5 -45t-1 -55t10.5 -53.5t24 -48.5t45.5 -33t70 -13.5q44 0 89 11l38 179h-62q-20 0 -22.5 4t1.5 24l5 25q5 20 9.5 24t24.5 4h145q20 0 22.5 -4t-1.5 -24z" />
<glyph unicode="H" horiz-adv-x="678" d="M605 44q-5 -26 -16 -35t-37 -9h-34q-27 0 -33.5 9.5t-1.5 34.5l59 276h-271l-59 -276q-5 -26 -16 -35t-37 -9h-33q-27 0 -34 9.5t-1 35.5l128 604q6 27 17.5 36t37.5 9h33q27 0 33.5 -9.5t0.5 -34.5l-53 -249h271l53 249q5 26 16.5 35t37.5 9h34q27 0 33.5 -9.5 t0.5 -34.5z" />
<glyph unicode="I" horiz-adv-x="283" d="M211 44q-5 -26 -16 -35t-37 -9h-33q-27 0 -34 9.5t-1 35.5l128 604q6 27 17.5 36t37.5 9h33q27 0 33.5 -9.5t0.5 -34.5z" />
<glyph unicode="J" horiz-adv-x="450" d="M399 147q-16 -78 -70.5 -122t-129.5 -44q-71 0 -134 34q-12 7 -15 10.5t-2 10.5q1 4 12 33t14 35q6 12 15 12q5 0 11 -10q29 -46 88 -46q73 0 94 93l105 497q5 26 16.5 35t37.5 9h31q27 0 33.5 -9.5t0.5 -34.5z" />
<glyph unicode="K" horiz-adv-x="663" d="M611 27q-3 -13 -9 -19t-12 -7t-19 -1h-39q-21 0 -28 3.5t-13 19.5l-132 306l-120 -106l-38 -179q-5 -26 -16 -35t-37 -9h-22q-27 0 -34 9.5t-1 35.5l128 604q6 27 17.5 36t37.5 9h22q27 0 33.5 -9.5t0.5 -34.5l-61 -289l352 312q24 21 57 21h37q10 0 15.5 -0.5t10 -5 t2.5 -13.5q-1 -6 -16 -20l-279 -248z" />
<glyph unicode="L" horiz-adv-x="514" d="M483 45q-6 -25 -16 -35t-38 -10h-303q-27 0 -34 9.5t-1 35.5l128 604q6 27 17.5 36t37.5 9h33q27 0 33.5 -9.5t0.5 -34.5l-120 -563l229 4q28 0 34 -14.5t-1 -31.5z" />
<glyph unicode="M" horiz-adv-x="836" d="M763 44q-5 -26 -16 -35t-37 -9h-16q-27 0 -33.5 9.5t-1.5 34.5l115 540q-3 -12 -61 -121.5t-66 -123.5l-155 -278q-15 -27 -28.5 -34.5t-43.5 -7.5q-17 0 -25.5 1.5t-18 10.5t-11.5 27l-34 264l-14 132q-9 106 -7 130h-1l-115 -540q-5 -26 -16 -35t-37 -9h-15 q-27 0 -34 9.5t-1 35.5l128 604q6 27 17.5 36t37.5 9h62q14 0 22 -1.5t17 -10.5t11 -27l34 -263l15 -136q11 -101 8 -130h1q7 21 59 122l66 123l157 281q8 15 13.5 22t19.5 13.5t35 6.5h64q27 0 33.5 -9.5t0.5 -34.5z" />
<glyph unicode="N" horiz-adv-x="678" d="M605 44q-5 -26 -16 -35t-37 -9h-73q-27 0 -38.5 8t-15.5 32l-96 442q-15 73 -18 106h-1l-116 -544q-5 -26 -16 -35t-37 -9h-15q-27 0 -34 9.5t-1 35.5l128 604q6 27 17.5 36t37.5 9h72q27 0 38 -8t16 -32l95 -442q17 -83 19 -106h1l115 544q5 26 16.5 35t37.5 9h16 q27 0 33.5 -9.5t0.5 -34.5z" />
<glyph unicode="O" horiz-adv-x="697" d="M716 342q-38 -177 -137 -270q-96 -91 -235 -91q-67 0 -118 23.5t-77 63.5q-62 96 -23 274q35 164 121 261q47 53 114 81.5t139 28.5q159 0 211 -125q37 -91 5 -246zM597 358q28 134 8 198q-8 27 -23.5 45.5t-34 27t-33 11.5t-29.5 3q-91 0 -154 -82q-48 -61 -80 -203 q-28 -130 -13 -201q13 -59 48 -81.5t73 -22.5q98 0 165 103q46 73 73 202z" />
<glyph unicode="P" horiz-adv-x="608" d="M657 484q-12 -57 -40.5 -99.5t-65.5 -64.5t-74.5 -32t-76.5 -10h-138l-50 -234q-5 -26 -16 -35t-37 -9h-33q-27 0 -34 9.5t-1 35.5l128 604q6 27 17.5 36t37.5 9h206q109 0 153.5 -56.5t23.5 -153.5zM543 483q5 23 6.5 40t-2.5 36.5t-16 31.5t-36.5 20t-60.5 8h-102 l-58 -272h102q46 0 77.5 11.5t49 33.5t26 42t14.5 49z" />
<glyph unicode="Q" horiz-adv-x="697" d="M716 342q-26 -113 -70 -186q-52 -85 -119 -124l44 -94q9 -23 8 -28q-5 -21 -38 -21h-60q-23 0 -28.5 4.5t-17.5 32.5l-23 61q-34 -6 -68 -6q-67 0 -118 23.5t-77 63.5q-62 96 -23 274q35 164 121 261q47 53 114 81.5t139 28.5q159 0 211 -125q37 -91 5 -246zM597 343 q29 135 9 209q-12 43 -44.5 67t-76.5 24q-41 0 -81 -21t-69 -56q-59 -76 -90 -223q-28 -127 -10 -194q13 -55 48 -76.5t76 -21.5l12 1q12 0 13 3l-17 44l-16 39q-11 30 -9 35q4 21 38 21h46q16 0 20.5 -1.5t9.5 -10.5l34 -75q69 64 107 236z" />
<glyph unicode="R" horiz-adv-x="614" d="M578 22q-5 -22 -40 -22h-42q-21 0 -27 4t-11 20l-86 291h-105l-58 -271q-5 -26 -16 -35t-37 -9h-30q-27 0 -34 9.5t-1 35.5l128 604q6 27 17.5 36t37.5 9h199q117 0 164.5 -53.5t28.5 -140.5q-29 -136 -180 -176l89 -287q4 -12 3 -15zM552 499q12 57 -8.5 88.5 t-100.5 31.5h-111l-51 -240h110q81 0 115 32t46 88z" />
<glyph unicode="S" horiz-adv-x="528" d="M515 195q-20 -96 -85.5 -155t-170.5 -59q-102 0 -180 55q-19 13 -22 16.5t-2 10.5q10 32 29 74q6 14 15 14q5 0 14 -10q65 -67 165 -67q107 0 130 110q8 40 -6 67.5t-38 38.5q-4 2 -29 9t-33 9q-32 9 -47.5 14.5t-34.5 19t-36 36.5q-5 7 -11 19.5t-13.5 45.5t2.5 69 q19 88 82.5 144.5t172.5 56.5q84 0 144 -40q15 -10 17.5 -13t1.5 -9q0 -3 -28 -74q-6 -14 -15 -14q-5 0 -11 7q-48 56 -127 56q-108 0 -129 -99q-9 -40 17 -75q10 -12 24 -17.5t59 -18.5q33 -9 49 -14.5t37.5 -20.5t36.5 -38q40 -64 22 -148z" />
<glyph unicode="T" horiz-adv-x="644" d="M746 643q-6 -28 -17.5 -36.5t-38.5 -8.5l-179 3l-119 -557q-5 -26 -16 -35t-37 -9h-33q-27 0 -34 9.5t-1 35.5l118 556l-181 -3q-28 0 -35.5 8.5t-1.5 36.5q5 27 16 36t38 9h486q28 0 35 -12t0 -33z" />
<glyph unicode="U" horiz-adv-x="657" d="M623 228q-23 -109 -99.5 -178t-197.5 -69t-170.5 68.5t-26.5 178.5l90 421q6 27 17.5 36t37.5 9h33q27 0 33.5 -9.5t0.5 -34.5l-90 -423q-36 -171 92 -171q135 0 169 172l90 422q5 26 16.5 35t37.5 9h23q27 0 33.5 -9.5t0.5 -34.5z" />
<glyph unicode="V" horiz-adv-x="636" d="M754 669q0 -3 -9 -19l-331 -611q-21 -39 -66 -39h-61q-14 0 -22 1.5t-16.5 10.5t-10.5 28l-72 610q-1 7 -1 19q6 25 43 25h34q10 0 16 -0.5t14 -4t13 -12t6 -22.5l40 -352q2 -13 10 -103q7 -73 6 -94h1q23 58 119 235l170 313q14 26 28 33t39 7h19q11 0 17 -1t11.5 -6.5 t2.5 -17.5z" />
<glyph unicode="W" horiz-adv-x="900" d="M1021 668l-6 -14l-279 -615q-8 -18 -20 -27t-20 -10.5t-22 -1.5h-48q-15 0 -22.5 1.5t-15.5 11t-8 28.5l-8 324q-5 167 0 222h-1q-13 -36 -50 -121.5t-43 -97.5l-146 -325q-9 -20 -21 -30t-20 -11.5t-23 -1.5h-43q-14 0 -21.5 1.5t-16 10.5t-8.5 27l-17 615v14 q6 26 45 26h21q13 0 20.5 -1t16 -10t8.5 -27l9 -352q2 -150 -4 -195h1q18 57 108 257l129 288q8 19 20.5 28t21 10.5t22.5 1.5h43q10 0 15.5 -0.5t13.5 -4t12 -12t4 -22.5l8 -333q4 -151 0 -215h1q23 70 93 220l147 329q8 18 21 27t21.5 10t24.5 1q13 0 20 -1t13.5 -7 t3.5 -18z" />
<glyph unicode="X" horiz-adv-x="636" d="M609 27q-3 -13 -9 -19t-11.5 -7t-18.5 -1h-56q-20 0 -27 3.5t-13 18.5l-105 252l-206 -252q-12 -15 -21.5 -18.5t-28.5 -3.5h-48q-11 0 -16.5 0.5t-10.5 5.5t-3 15q2 7 13 19l282 327l-137 287q-6 12 -5 20q5 20 39 20h56q20 0 26.5 -3.5t12.5 -17.5l89 -202l172 205 q15 18 47 18h49q10 0 15.5 -0.5t10.5 -5.5t3 -15q-1 -5 -12 -17l-248 -289z" />
<glyph unicode="Y" horiz-adv-x="636" d="M759 673q-1 -3 -13 -20l-310 -376l-50 -234q-6 -27 -17.5 -35t-35.5 -8h-31q-26 0 -33 9t-2 35l50 234l-152 379q-5 7 -3 16q5 21 40 21h41q48 0 62 -36l73 -189q24 -66 29 -89q15 28 117.5 154t113.5 137q25 23 66 23h25q11 0 16.5 -0.5t10.5 -5.5t3 -15z" />
<glyph unicode="Z" horiz-adv-x="581" d="M543 45q-6 -25 -16 -35t-38 -10h-392q-27 0 -34 11t0 34q5 22 16 35l437 533h-36l-230 -3h-16q-5 0 -12.5 1.5t-10.5 4t-6 7t-2.5 12t2.5 17.5q4 19 13.5 29t17.5 11.5t23 1.5h372q24 0 32 -8.5t2 -34.5q-3 -18 -16 -33l-436 -531l289 4q29 0 38 -7.5t3 -38.5z" />
<glyph unicode="[" horiz-adv-x="293" d="M231 -190q-7 -32 -51 -32h-105q-27 0 -33.5 9.5t-1.5 34.5l188 884q5 26 16 35t37 9h105q11 0 18 -1t15 -8.5t5 -22.5q-7 -32 -51 -32h-44l-180 -844h44q11 0 18 -1t15 -8.5t5 -22.5z" />
<glyph unicode="\" horiz-adv-x="500" d="M394 -230q-4 -20 -24 -20q-15 0 -17 22l-141 940l-1 18q5 20 24 20q14 0 18 -22l140 -940z" />
<glyph unicode="]" horiz-adv-x="293" d="M176 -178q-5 -26 -16 -35t-37 -9h-105q-11 0 -18 1t-14.5 8.5t-4.5 22.5q6 32 50 32h44l180 844h-44q-11 0 -18 1t-14.5 8.5t-4.5 22.5q6 32 50 32h105q27 0 34 -9.5t1 -34.5z" />
<glyph unicode="^" horiz-adv-x="556" d="M685 584l-17 -22l-245 123l-298 -123l-6 22l317 160z" />
<glyph unicode="_" horiz-adv-x="636" d="M598 -181h-636l23 112h636z" />
<glyph unicode="`" d="M422 557q-2 -11 -27 -11h-31l-109 122q-8 8 -7 15q3 11 27 11h61q14 0 17 -1.5t8 -9.5l57 -111z" />
<glyph unicode="a" horiz-adv-x="453" d="M407 44q-5 -26 -16 -35t-37 -9h-20q-27 0 -33.5 9.5t-1.5 34.5l6 25q-22 -29 -62 -54t-88 -25q-57 0 -85 43t-16 99q8 35 28.5 62.5t50.5 44t57.5 27.5t62.5 16t50 6.5t35 2.5q8 1 10 3.5t5 15.5l4 20q5 23 5.5 41t-3.5 28t-8.5 16.5t-13.5 9t-13.5 3t-12.5 0.5 q-73 0 -136 -50q-13 -10 -18 -10q-7 0 -8.5 6t1.5 23q1 8 5 36q1 8 6 11t23 12q70 31 144 31q88 0 122 -41.5t18 -114.5zM320 155l21 101q-24 -1 -47 -6t-53 -17t-52 -37.5t-30 -61.5q-6 -33 7.5 -56.5t42.5 -23.5q10 0 22.5 3.5t31.5 12.5t34.5 31t22.5 54z" />
<glyph unicode="b" horiz-adv-x="483" d="M500 237q-22 -108 -76 -169q-67 -78 -164 -78q-60 0 -86 45q-4 -16 -13.5 -24.5t-17 -9.5t-20.5 -1h-22q-27 0 -34 9.5t-1 35.5l128 604q6 27 17.5 36t37.5 9h19q27 0 33.5 -9.5t0.5 -34.5l-47 -223q58 55 128 55q51 0 81.5 -24t39 -64t7 -78t-10.5 -79zM390 238 q5 22 7 35.5t5 38t0 40t-9 32.5t-21 25.5t-38 8.5q-28 0 -55 -15q-21 -13 -26.5 -20t-8.5 -22l-57 -267q15 -40 59 -40q30 0 54 14t37.5 31.5t25.5 47.5t16.5 46.5t10.5 44.5z" />
<glyph unicode="c" horiz-adv-x="422" d="M408 62q-2 -13 -36 -32l-35 -19q-49 -21 -101 -21q-100 0 -140 64q-37 62 -14 183q26 120 93.5 185t170.5 65q45 0 69 -8t53 -27q8 -5 9 -6t4 -5t0 -7l-15 -37q-7 -18 -10.5 -23t-9.5 -5q-5 0 -12 9q-22 21 -43 30t-59 9q-34 0 -59 -16.5t-40.5 -47t-23.5 -55.5t-15 -60 q-5 -24 -7.5 -39.5t-4 -44.5t4 -47t22 -32.5t44.5 -14.5q68 0 138 57q9 9 15 9q7 0 8.5 -5.5t-1.5 -22.5q-4 -33 -5 -36z" />
<glyph unicode="d" horiz-adv-x="483" d="M435 44q-5 -26 -16 -35t-37 -9h-23q-27 0 -33.5 9.5t-1.5 34.5q-5 -6 -17 -16.5t-41.5 -24t-59.5 -13.5q-92 0 -124 81q-23 62 0 165q25 114 81 176q62 70 152 70q65 0 95 -49l46 217q5 26 16.5 35t37.5 9h20q27 0 33.5 -9.5t0.5 -34.5zM336 101l61 283l-3 4q-3 5 -7.5 9 t-11.5 9.5t-17 8.5t-22 3q-30 0 -54 -14t-37.5 -31.5t-25.5 -47t-16 -46.5l-10 -44q-6 -28 -8.5 -43.5t-4.5 -45.5t3.5 -47t21.5 -31t43 -14q49 0 88 47z" />
<glyph unicode="e" horiz-adv-x="438" d="M469 275q-5 -26 -16.5 -34.5t-36.5 -8.5h-238q-36 -178 80 -178q78 0 143 62q9 9 15 9q7 0 8 -5t-1 -19q0 -20 -4 -36q-5 -22 -74 -53q-53 -22 -104 -22q-40 0 -73 11.5t-61.5 40t-35.5 76.5t6 121q15 70 45 121.5t67.5 77.5t73.5 37.5t72 11.5q87 0 121.5 -54.5 t12.5 -157.5zM384 279q3 18 4.5 29t3 30.5t-2.5 32t-10.5 26t-21 20t-35.5 6.5q-48 0 -82 -41.5t-51 -102.5h195z" />
<glyph unicode="f" horiz-adv-x="290" d="M465 640q-2 -10 -3 -14t-4.5 -7.5t-8.5 -3.5t-12 6q-23 19 -57 19q-21 0 -36 -6.5t-22.5 -18.5t-10.5 -20t-6 -21l-22 -102h44q11 0 18 -1t15 -8.5t5 -22.5q-7 -32 -51 -32h-41l-78 -364q-5 -26 -16 -35t-37 -9h-19q-27 0 -34 9.5t-1 35.5l77 363q-17 0 -25.5 1t-16 8.5 t-4.5 22.5t14 22.5t20 8.5t25 1l17 77q15 73 66.5 114t132.5 41q30 0 55 -5q20 -5 23 -9t-1 -22z" />
<glyph unicode="g" horiz-adv-x="483" d="M432 27q-19 -92 -78.5 -153t-160.5 -61q-81 0 -144 33q-10 6 -11.5 10t2.5 20l5 23q5 26 16 26q5 0 12 -7q57 -41 132 -41q84 0 110 123l20 93h-1q-44 -72 -116 -72q-90 0 -125 63q-32 58 -10 154q21 106 80 171q65 73 160 73q62 0 85 -58q4 20 6.5 27.5t8.5 16.5 t15.5 11.5t25.5 2.5h20q27 0 34 -9.5t1 -34.5zM376 272l13 63q7 33 -7.5 58t-45.5 25t-56 -17t-41.5 -45.5t-27 -57t-17.5 -60.5q-4 -18 -6 -36.5t-1 -48.5t18 -49t49 -19q77 0 114 163q2 12 8 24z" />
<glyph unicode="h" horiz-adv-x="483" d="M437 44q-5 -26 -16 -35t-37 -9h-23q-27 0 -33.5 9.5t-1.5 34.5l63 294q10 42 2 61t-39 19q-39 0 -76.5 -35.5t-50.5 -99.5l-51 -239q-5 -26 -16 -35t-37 -9h-22q-27 0 -34 9.5t-1 35.5l128 604q6 27 17.5 36t37.5 9h19q27 0 33.5 -9.5t0.5 -34.5l-56 -263h1q64 95 157 95 q72 0 92.5 -36.5t6.5 -103.5z" />
<glyph unicode="i" horiz-adv-x="219" d="M172 44q-5 -26 -16 -35t-37 -9h-19q-27 0 -34 9.5t-1 35.5l81 382q5 27 16.5 36t37.5 9h19q27 0 34 -9.5t1 -34.5zM300 608q-6 -28 -17.5 -37.5t-37.5 -9.5h-33q-27 0 -33.5 10t-1.5 37l5 24q7 29 18 38t37 9h33q27 0 34 -9.5t1 -37.5z" />
<glyph unicode="j" horiz-adv-x="246" d="M185 -25q-16 -75 -59 -113.5t-102 -38.5q-38 0 -78 14t-37 27q0 1 6.5 13.5t7.5 15.5q8 15 11.5 19t9.5 4q2 0 12 -6q21 -14 49 -14q25 0 41 12t19.5 22.5t7.5 27.5l100 470q5 26 16 35t37 9h20q27 0 34 -9.5t1 -34.5zM319 608q-6 -28 -17.5 -37.5t-37.5 -9.5h-33 q-27 0 -33.5 10t-1.5 37l5 24q7 29 18 38t37 9h33q27 0 34 -9.5t1 -37.5z" />
<glyph unicode="k" horiz-adv-x="457" d="M428 21q-4 -21 -38 -21h-28q-31 0 -38 15l-81 198l-51 -44l-27 -125q-5 -26 -16 -35t-37 -9h-6q-27 0 -34 9.5t-1 35.5l128 604q6 27 17.5 36t37.5 9h9q27 0 33.5 -9.5t0.5 -34.5l-73 -345l165 147q22 20 55 20h33q10 0 15.5 -0.5t10.5 -5t3 -13.5q-1 -6 -16 -20 l-167 -148l102 -248q5 -9 3 -16z" />
<glyph unicode="l" horiz-adv-x="219" d="M172 44q-5 -26 -16 -35t-37 -9h-19q-27 0 -34 9.5t-1 35.5l128 604q6 27 17.5 36t37.5 9h19q27 0 33.5 -9.5t0.5 -34.5z" />
<glyph unicode="m" horiz-adv-x="747" d="M702 44q-5 -26 -16 -35t-37 -9h-22q-27 0 -34 9.5t-1 35.5l62 293q10 41 2 60.5t-39 19.5q-40 0 -77.5 -35.5t-50.5 -99.5l-51 -239q-5 -26 -16 -35t-37 -9h-22q-27 0 -34 9.5t-1 35.5l62 293q10 41 2 60.5t-39 19.5q-40 0 -77.5 -35.5t-50.5 -99.5l-51 -239 q-5 -26 -16 -35t-37 -9h-22q-27 0 -34 9.5t-1 35.5l82 388q6 27 17.5 36t37.5 9h16q27 0 33.5 -9.5t0.5 -34.5l-11 -53l1 -1q63 102 161 102q21 0 37 -3t34.5 -12t27.5 -30t7 -52q66 97 158 97q71 0 92.5 -35.5t7.5 -104.5z" />
<glyph unicode="n" horiz-adv-x="483" d="M437 44q-5 -26 -16 -35t-37 -9h-23q-27 0 -33.5 9.5t-1.5 34.5l63 294q10 42 2 61t-39 19q-39 0 -76.5 -35.5t-50.5 -99.5l-51 -239q-5 -26 -16 -35t-37 -9h-22q-27 0 -34 9.5t-1 35.5l82 388q6 27 17.5 36t37.5 9h16q27 0 33.5 -9.5t0.5 -34.5l-11 -54h1q67 102 161 102 q72 0 92.5 -36.5t6.5 -103.5z" />
<glyph unicode="o" d="M497 232q-23 -117 -94 -180q-68 -62 -168 -62q-103 0 -145 64q-38 63 -15 178q24 114 90 183q69 72 176 72q103 0 144 -70q38 -65 12 -185zM389 244q5 23 7.5 36.5t5 38.5t-0.5 40t-10 31.5t-23.5 24.5t-40.5 8q-29 0 -51.5 -13t-36 -29.5t-25 -45.5t-15.5 -46t-10 -45 q-4 -21 -6.5 -32t-5 -33.5t-2 -36t4 -31t12 -27.5t23 -17t35.5 -7q29 0 52 13.5t36 31t24.5 47t16 47t10.5 45.5z" />
<glyph unicode="p" horiz-adv-x="483" d="M501 238q-24 -108 -78 -172q-31 -36 -74.5 -56t-87.5 -20q-55 0 -87 45l-33 -158q-5 -26 -16 -35t-37 -9h-22q-27 0 -34 9.5t-2 35.5l117 549q5 27 16 36t38 9h19q30 0 36 -13.5t-2 -34.5q65 58 136 58q38 0 64.5 -16t38.5 -40.5t16 -58.5t1.5 -65t-9.5 -64zM389 236 q5 20 7.5 41.5t2.5 56t-17 56.5t-50 22q-46 0 -85 -37l-60 -282q2 -5 6 -12t19 -17t34 -10q29 0 54 17t39.5 38t26.5 51.5t16 45t7 30.5z" />
<glyph unicode="q" horiz-adv-x="483" d="M400 -123q-5 -26 -16 -35t-37 -9h-23q-27 0 -34 9.5t-1 34.5l35 166q-52 -53 -115 -53q-53 0 -85.5 23.5t-42 63t-9 78t9.5 80.5q21 102 72 165q66 82 165 82q66 0 88 -62l4 18q5 26 16 35t37 9h20q27 0 34 -9.5t1 -34.5zM341 109l47 221q7 32 -7.5 57t-46.5 25 q-29 0 -53.5 -16.5t-39 -37t-26 -50.5t-15.5 -44t-7 -30q-9 -47 -10.5 -87t15 -66.5t51.5 -26.5q54 0 92 55z" />
<glyph unicode="r" horiz-adv-x="321" d="M398 427q-4 -18 -7.5 -21.5t-16.5 -4.5q-54 -5 -98.5 -46.5t-59.5 -108.5l-43 -202q-5 -26 -16 -35t-37 -9h-19q-27 0 -34 9.5t-1 35.5l82 388q6 27 17.5 36t37.5 9h14q27 0 33.5 -9.5t0.5 -34.5l-14 -66h1q33 58 75 86t80 28q11 0 13 -5t-2 -21z" />
<glyph unicode="s" horiz-adv-x="364" d="M372 140q-32 -150 -186 -150q-50 0 -94 17q-59 25 -55 43q0 3 10 28t13 31q4 12 14 12q6 0 14 -10q40 -52 111 -52q69 0 83 65q4 20 0.5 33.5t-16 21.5t-22 11t-28.5 8q-135 30 -110 148q30 141 185 141q65 0 112 -27q13 -7 15.5 -10t1.5 -9q-4 -14 -15 -37 q-7 -18 -10.5 -22.5t-9.5 -4.5q-5 0 -10 5q-40 43 -104 43q-63 0 -75 -59q-2 -9 -2 -17t2 -14t4.5 -10.5t8.5 -8.5t10.5 -6.5t13.5 -5t13.5 -3.5t15.5 -4q24 -5 36.5 -9t29 -15.5t29.5 -29.5q27 -44 15 -103z" />
<glyph unicode="t" horiz-adv-x="346" d="M329 50q-3 -14 -56.5 -37t-107.5 -23q-89 0 -60 131l61 287h-17q-11 0 -18 1t-14.5 8.5t-4.5 22.5q6 32 51 32h19l19 90q6 27 17.5 36t37.5 9h13q27 0 33.5 -9.5t1.5 -34.5l-20 -91h74q11 0 18 -1t15 -8.5t5 -22.5q-7 -32 -51 -32h-74l-57 -269q-18 -79 17 -79 q39 0 69 28q11 12 17 12q9 0 11 -21q0 -3 0.5 -15t0.5 -14z" />
<glyph unicode="u" horiz-adv-x="483" d="M437 44q-5 -26 -16 -35t-37 -9h-20q-27 0 -33.5 9.5t-1.5 34.5l7 31q-56 -85 -138 -85q-75 0 -103.5 32t-13.5 107l64 298q5 27 16 36t38 9h22q27 0 34 -9.5t1 -34.5l-65 -306q-11 -45 -3 -62t46 -17q46 0 78 41.5t43 96.5l53 247q5 26 16 35t37 9h23q27 0 34 -9.5 t1 -34.5z" />
<glyph unicode="v" horiz-adv-x="431" d="M504 447q-1 -4 -6 -15l-195 -393q-9 -18 -21 -27t-20.5 -10.5t-22.5 -1.5h-48q-14 0 -22 1.5t-16.5 10.5t-9.5 27l-27 408q6 17 16 21t27 4h12q27 0 36 -9t11 -31l22 -321l158 320q13 26 27 33.5t37 7.5h9q7 0 11.5 -0.5t11 -2.5t9.5 -7.5t1 -14.5z" />
<glyph unicode="w" horiz-adv-x="642" d="M716 446q-1 -3 -3.5 -9t-3.5 -7l-176 -391q-8 -18 -20 -27t-20.5 -10.5t-21.5 -1.5h-48q-38 0 -45 24q-2 16 -3.5 137t5.5 193q-10 -47 -70 -184.5t-67 -146.5q-17 -23 -54 -23h-19q-13 0 -21 1.5t-16.5 10.5t-8.5 27l-9 389v18q5 26 44 26h11q21 0 31 -6.5t11.5 -13.5 t2.5 -23l6 -246q1 -35 -2 -68h1l39 92l99 220q7 16 12 23.5t17 14.5t31 7q41 0 42 -39l8 -320l144 320q8 18 20 27t20.5 10.5t25.5 1.5q13 0 20 -1t13.5 -7t4.5 -18z" />
<glyph unicode="x" horiz-adv-x="431" d="M415 20q-4 -20 -38 -20h-24q-20 0 -27 4t-13 18l-63 156l-124 -155q-12 -16 -21.5 -19.5t-28.5 -3.5h-24q-10 0 -15.5 0.5t-10.5 5.5t-3 14q3 11 13 20l185 204l-96 189q-5 12 -4 19q4 20 37 20h24q15 0 23 -2.5t10.5 -5.5t7.5 -13l58 -125l108 124q13 15 21 18.5t28 3.5 h24q10 0 15.5 -0.5t10.5 -5.5t3 -15q-1 -7 -12 -18l-172 -189l104 -206q6 -12 4 -18z" />
<glyph unicode="y" horiz-adv-x="431" d="M503 447l-9 -19l-245 -479q-29 -55 -76.5 -90.5t-103.5 -35.5q-54 0 -64 10q-3 6 -0.5 30.5t4.5 33.5q3 14 15 14l6 -3q28 -14 55 -14q41 0 68 34q7 9 22.5 36.5t16.5 34.5l-1 15l-71 416l-1 18q5 24 42 24h12q33 0 41.5 -12t16.5 -61q35 -215 23 -281q17 57 80 185 l65 129q9 19 20 28t20 10.5t27 1.5q14 0 20.5 -1t12.5 -6.5t4 -17.5z" />
<glyph unicode="z" horiz-adv-x="411" d="M388 33q-7 -33 -51 -33h-267q-13 0 -20 1t-13.5 10t-2.5 27q3 15 16 30l297 339h-38l-131 -2q-12 0 -18.5 0.5t-15 3.5t-11 10t-0.5 19q7 34 52 34h250q13 0 20 -1t13.5 -10t2.5 -27q-3 -15 -16 -30l-296 -339h46l137 2q17 0 26 -1t16 -9t4 -24z" />
<glyph unicode="{" horiz-adv-x="500" d="M376 -239q-2 -11 -22 -11q-84 0 -131 38q-30 25 -33.5 56.5t8.5 72.5l42 198q8 35 0 60.5t-27 38t-37 18.5t-37 7q-14 1 -14 11q2 11 16 11q64 4 114 45q23 20 31 41.5t24 96.5l39 183q13 53 76.5 88t140.5 35q8 0 11 -0.5t5.5 -3t1.5 -7.5q-2 -9 -11 -11 q-33 -2 -59 -10.5t-36 -15.5t-26 -20q-20 -18 -28.5 -39t-20.5 -80l-39 -180q-4 -17 -8.5 -29t-19 -34t-44.5 -40t-74 -30q95 -28 94 -103q0 -6 -17 -91l-32 -150q-8 -39 -7 -48q1 -32 27 -57.5t80 -28.5q13 -1 13 -11z" />
<glyph unicode="|" horiz-adv-x="278" d="M113 -217q-7 -33 -27 -33t-13 33l198 934q7 33 27 33t13 -33z" />
<glyph unicode="}" horiz-adv-x="500" d="M480 250q-2 -11 -16 -11q-64 -4 -114 -45q-23 -20 -31 -41.5t-24 -96.5l-39 -183q-12 -53 -76 -88t-141 -35q-7 0 -10 0.5t-6 3t-2 7.5q2 9 12 11q32 2 58 10.5t36 15.5t26 20q21 17 28.5 37.5t21.5 81.5l38 180q4 17 8.5 29t19 34t44.5 40t74 30q-95 28 -94 103 q0 6 17 91l32 150q8 36 7 48q-1 32 -26.5 57.5t-79.5 28.5q-14 1 -14 11q2 11 22 11q84 0 131 -38q30 -25 33.5 -56.5t-8.5 -72.5l-42 -198q-7 -35 0.5 -60.5t26.5 -38t37 -18.5t37 -7q14 -1 14 -11z" />
<glyph unicode="~" horiz-adv-x="556" d="M620 304l-64 -44q-24 -17 -64 -35q-43 -18 -77 -18q-41 0 -93 34q-21 14 -31 19.5t-28 11.5t-37 6q-68 0 -168 -71l-10 17l63 44q24 17 64 35q45 18 77 18q43 0 93 -34q21 -14 31 -19.5t28 -11.5t37 -6q69 0 168 71z" />
<glyph unicode="&#xa2;" horiz-adv-x="422" d="M408 62q-2 -13 -36 -32l-35 -19q-28 -12 -63 -18l-13 -58q-2 -8 -9 -14.5t-16 -6.5h-43q-9 0 -14.5 6.5t-3.5 14.5l13 60q-63 14 -92 59q-37 62 -14 183q22 103 75.5 166t133.5 79l12 55q2 9 10 15t17 6h43q9 0 13.5 -6t2.5 -15l-11 -51q48 -5 90 -34q8 -5 9 -6t4 -5 t0 -7l-15 -37q-7 -18 -10.5 -23t-9.5 -5q-5 0 -12 9q-35 32 -71 37l-74 -351q50 9 102 53q9 9 15 9q7 0 8.5 -5.5t-1.5 -22.5q-4 -33 -5 -36zM205 76l69 325q-55 -36 -80 -163q-28 -125 11 -162z" />
<glyph unicode="&#xa3;" horiz-adv-x="636" d="M605 157q-15 -72 -69 -124t-119 -52q-39 0 -93 15q-39 11 -62 15.5t-53.5 4.5t-43.5 -13q-22 -22 -49 -22q-23 0 -36 16.5t-8 39.5q5 21 18 34q88 90 132 197l15 36h-76q-13 0 -20.5 9.5t-5.5 22.5l5 22q3 14 14.5 23t24.5 9h80l18 84q22 89 80.5 154.5t132.5 65.5 q75 0 107 -66t12 -157q-4 -23 -24.5 -39.5t-43.5 -16.5t-36 16.5t-8 39.5q23 111 -31 111q-53 0 -78 -111q-4 -15 -9.5 -43.5t-7.5 -37.5h62q13 0 20.5 -9.5t4.5 -22.5l-5 -22q-2 -13 -13.5 -22.5t-24.5 -9.5h-66q-11 -32 -22 -59q-26 -63 -63 -119q44 -4 111 -22 q39 -11 66 -11q20 0 33.5 19t18.5 45q5 23 25 39.5t43 16.5t36 -16.5t8 -39.5z" />
<glyph unicode="&#xa5;" horiz-adv-x="636" d="M759 673q-1 -3 -13 -20l-223 -270h56q13 0 20.5 -9.5t5.5 -22.5l-5 -22q-3 -14 -14.5 -23t-24.5 -9h-109l-16 -20l-8 -35h121q13 0 20.5 -9t5.5 -23l-5 -22q-3 -14 -14.5 -23t-24.5 -9h-121l-24 -113q-6 -27 -17.5 -35t-35.5 -8h-31q-26 0 -33 9t-2 35l24 112h-120 q-14 0 -21 9.5t-4 22.5l5 22q2 13 13 22.5t25 9.5h120l8 36l-8 19h-108q-14 0 -21 9.5t-4 22.5l5 22q2 13 13.5 22.5t24.5 9.5h55l-109 274q-5 7 -3 16q5 21 40 21h41q48 0 62 -36l73 -189q21 -54 28 -86h2q19 32 119 154.5t111 133.5q25 23 66 23h25q11 0 16.5 -0.5 t10.5 -5.5t3 -15z" />
<glyph unicode="&#xa9;" horiz-adv-x="694" d="M768 347q-31 -144 -154 -245.5t-267 -101.5t-224 101.5t-49 245.5t154 245.5t267 101.5t224 -101.5t49 -245.5zM704 347q25 118 -40 200.5t-183 82.5q-117 0 -217.5 -82.5t-125.5 -200.5q-25 -117 40.5 -200t182.5 -83q118 0 218 83t125 200zM517 166q-1 -4 -17 -14 q-48 -28 -106 -28q-91 0 -132 57q-39 55 -15 166q22 102 77 158q66 66 164 66q46 0 90 -17q13 -7 12 -13q-2 -13 -18 -45q-3 -8 -8 -8q-3 0 -8 4q-34 26 -78 26q-34 0 -62 -15.5t-44 -35.5t-28 -48t-16 -42t-7 -30q-36 -171 85 -171q52 0 99 29q8 5 11 5q5 0 5 -7 q0 -17 -4 -37z" />
<glyph unicode="&#xad;" horiz-adv-x="317" d="M313 236q-7 -32 -51 -32h-164q-11 0 -18 1t-14.5 8.5t-4.5 22.5q7 32 51 32h164q11 0 18 -1t14.5 -8.5t4.5 -22.5z" />
<glyph unicode="&#xae;" horiz-adv-x="694" d="M768 347q-31 -144 -154 -245.5t-267 -101.5t-224 101.5t-49 245.5t154 245.5t267 101.5t224 -101.5t49 -245.5zM704 347q25 118 -40 200.5t-183 82.5q-117 0 -217.5 -82.5t-125.5 -200.5q-25 -117 40.5 -200t182.5 -83q118 0 218 83t125 200zM544 149q-3 -14 -24 -14h-26 q-13 0 -16.5 2.5t-6.5 12.5l-52 178h-64l-36 -166q-3 -16 -9.5 -21.5t-22.5 -5.5h-19q-16 0 -20.5 6t-0.5 22l78 369q4 16 10.5 21.5t22.5 5.5h122q71 0 100 -32.5t18 -85.5q-18 -82 -110 -108l55 -175q1 -6 1 -9zM529 440q7 35 -6 54t-62 19h-67l-31 -146h67q50 0 70.5 19 t28.5 54z" />
<glyph unicode="&#xb4;" d="M517 683q-1 -6 -13 -15l-161 -122h-31q-9 0 -13.5 0.5t-7.5 3t-2 7.5l12 15l103 111q11 11 31 11h61q14 0 18.5 -1.5t2.5 -9.5z" />
<glyph unicode="&#x2000;" horiz-adv-x="375" />
<glyph unicode="&#x2001;" horiz-adv-x="750" />
<glyph unicode="&#x2002;" horiz-adv-x="375" />
<glyph unicode="&#x2003;" horiz-adv-x="750" />
<glyph unicode="&#x2004;" horiz-adv-x="250" />
<glyph unicode="&#x2005;" horiz-adv-x="187" />
<glyph unicode="&#x2006;" horiz-adv-x="125" />
<glyph unicode="&#x2007;" horiz-adv-x="125" />
<glyph unicode="&#x2008;" horiz-adv-x="93" />
<glyph unicode="&#x2009;" horiz-adv-x="150" />
<glyph unicode="&#x200a;" horiz-adv-x="41" />
<glyph unicode="&#x2010;" horiz-adv-x="317" d="M313 236q-7 -32 -51 -32h-164q-11 0 -18 1t-14.5 8.5t-4.5 22.5q7 32 51 32h164q11 0 18 -1t14.5 -8.5t4.5 -22.5z" />
<glyph unicode="&#x2011;" horiz-adv-x="317" d="M313 236q-7 -32 -51 -32h-164q-11 0 -18 1t-14.5 8.5t-4.5 22.5q7 32 51 32h164q11 0 18 -1t14.5 -8.5t4.5 -22.5z" />
<glyph unicode="&#x2013;" d="M536 292q-7 -32 -51 -32h-386q-11 0 -18 1t-14.5 8.5t-4.5 22.5q7 32 51 32h386q11 0 18 -1t14.5 -8.5t4.5 -22.5z" />
<glyph unicode="&#x2014;" horiz-adv-x="950" d="M1011 292q-7 -32 -51 -32h-861q-11 0 -18 1t-14.5 8.5t-4.5 22.5q7 32 51 32h861q11 0 18 -1t14.5 -8.5t4.5 -22.5z" />
<glyph unicode="&#x2018;" horiz-adv-x="264" d="M292 503q-4 -19 -8.5 -22.5t-22.5 -3.5h-56q-18 0 -20.5 3.5t1.5 22.5l15 71l72 105q8 11 12.5 13t20.5 2q24 0 25 -7q0 -2 -1 -5q0 -2 -8 -17l-41 -82q20 0 23 -3.5t-1 -22.5z" />
<glyph unicode="&#x2019;" horiz-adv-x="264" d="M312 597l-72 -105q-8 -11 -12.5 -13t-20.5 -2q-24 0 -25 7q0 2 1 5q0 2 8 17l41 82q-20 0 -23 3.5t1 22.5l11 54q4 19 8.5 22.5t22.5 3.5h56q18 0 20.5 -3t-1.5 -23z" />
<glyph unicode="&#x201c;" horiz-adv-x="449" d="M477 503q-4 -19 -8.5 -22.5t-22.5 -3.5h-56q-18 0 -20.5 3.5t1.5 22.5l15 71l72 105q8 11 12.5 13t20.5 2q24 0 25 -7q0 -2 -1 -5q0 -2 -8 -17l-41 -82q20 0 23 -3.5t-1 -22.5zM292 503q-4 -19 -8.5 -22.5t-22.5 -3.5h-56q-18 0 -20.5 3.5t1.5 22.5l15 71l72 105 q8 11 12.5 13t20.5 2q24 0 25 -7q0 -2 -1 -5q0 -2 -8 -17l-41 -82q20 0 23 -3.5t-1 -22.5z" />
<glyph unicode="&#x201d;" horiz-adv-x="449" d="M497 597l-72 -105q-8 -11 -12.5 -13t-20.5 -2q-24 0 -25 7q0 2 1 5q0 2 8 17l41 82q-20 0 -23 3.5t1 22.5l11 54q4 19 8.5 22.5t22.5 3.5h56q18 0 20.5 -3t-1.5 -23zM312 597l-72 -105q-8 -11 -12.5 -13t-20.5 -2q-24 0 -25 7q0 2 1 5q0 2 8 17l41 82q-20 0 -23 3.5 t1 22.5l11 54q4 19 8.5 22.5t22.5 3.5h56q18 0 20.5 -3t-1.5 -23z" />
<glyph unicode="&#x2022;" horiz-adv-x="739" d="M577 182q-13 -62 -26 -72.5t-72 -10.5h-175q-60 0 -69 11.5t4 71.5l36 172q13 62 26 72.5t72 10.5h178q59 0 67 -10.5t-5 -72.5z" />
<glyph unicode="&#x2026;" horiz-adv-x="646" d="M573 26q-4 -19 -8.5 -22.5t-22.5 -3.5h-55q-19 0 -21.5 3.5t1.5 22.5l11 54q4 19 8.5 22.5t22.5 3.5h56q18 0 20.5 -3t-1.5 -23zM382 26q-4 -19 -8.5 -22.5t-22.5 -3.5h-55q-19 0 -21.5 3.5t1.5 22.5l11 54q4 19 8.5 22.5t22.5 3.5h56q18 0 20.5 -3t-1.5 -23zM191 26 q-4 -19 -8.5 -22.5t-22.5 -3.5h-55q-19 0 -21.5 3.5t1.5 22.5l11 54q4 19 8.5 22.5t22.5 3.5h56q18 0 20.5 -3t-1.5 -23z" />
<glyph unicode="&#x202f;" horiz-adv-x="150" />
<glyph unicode="&#x205f;" horiz-adv-x="187" />
<glyph unicode="&#x20ac;" horiz-adv-x="569" d="M531 49q0 -4 -5 -9q-70 -59 -153 -59q-61 0 -109 25t-72 72q-31 61 -28 153h-56q-5 0 -7 4t-1 9l21 54q4 9 13 9h38l8 40l9 40h-47q-13 0 -9 13l21 54q5 9 13 9h46q34 90 94 154q44 46 103 71t119 25q70 0 121 -36q5 -3 2 -11l-31 -80q-2 -7 -9 -8.5t-11 3.5 q-30 46 -91 46q-70 0 -123 -70q-30 -38 -52 -94h214q5 0 7.5 -4t0.5 -9l-21 -54q-4 -9 -12 -9h-213l-9 -40l-8 -40h195q12 0 8 -13l-21 -54q-4 -9 -13 -9h-178q-2 -53 12 -94q11 -32 35.5 -51t58.5 -19q71 0 131 52q6 5 12.5 3t4.5 -9z" />
<glyph unicode="&#x2122;" horiz-adv-x="888" d="M507 667q-4 -16 -10.5 -21.5t-22.5 -5.5l-108 2l-71 -334q-3 -15 -9.5 -20.5t-22.5 -5.5h-19q-16 0 -20.5 5.5t-0.5 21.5l70 333l-108 -2q-17 0 -22 5t-1 22q3 16 10 21.5t23 5.5h292q17 0 20.5 -7t-0.5 -20zM883 308q-3 -15 -9.5 -20.5t-22.5 -5.5h-9q-17 0 -21 5.5 t-1 20.5l69 324q-1 -7 -36 -73.5t-40 -73.5l-92 -167q-9 -15 -17.5 -20t-26.5 -5q-10 0 -15 1t-11 6t-7 16l-20 159l-8 79q-7 55 -5 78h-1l-69 -324q-3 -15 -9 -20.5t-22 -5.5h-9q-16 0 -20.5 5.5t-0.5 21.5l77 362q3 16 9.5 21.5t22.5 5.5h37q28 0 31 -23l21 -158l8 -82 q7 -54 5 -78h1q4 13 34 73l40 74l95 169q4 9 7.5 13t11.5 8t21 4h38q17 0 21 -6t1 -20z" />
</font>
</defs>
</svg>
